%TF.GenerationSoftware,KiCad,Pcbnew,8.0.5*%
%TF.CreationDate,2024-10-24T22:42:25-04:00*%
%TF.ProjectId,NRF24L01 2.4GHZ,4e524632-344c-4303-9120-322e3447485a,rev?*%
%TF.SameCoordinates,Original*%
%TF.FileFunction,Copper,L2,Bot*%
%TF.FilePolarity,Positive*%
%FSLAX46Y46*%
G04 Gerber Fmt 4.6, Leading zero omitted, Abs format (unit mm)*
G04 Created by KiCad (PCBNEW 8.0.5) date 2024-10-24 22:42:25*
%MOMM*%
%LPD*%
G01*
G04 APERTURE LIST*
G04 Aperture macros list*
%AMRoundRect*
0 Rectangle with rounded corners*
0 $1 Rounding radius*
0 $2 $3 $4 $5 $6 $7 $8 $9 X,Y pos of 4 corners*
0 Add a 4 corners polygon primitive as box body*
4,1,4,$2,$3,$4,$5,$6,$7,$8,$9,$2,$3,0*
0 Add four circle primitives for the rounded corners*
1,1,$1+$1,$2,$3*
1,1,$1+$1,$4,$5*
1,1,$1+$1,$6,$7*
1,1,$1+$1,$8,$9*
0 Add four rect primitives between the rounded corners*
20,1,$1+$1,$2,$3,$4,$5,0*
20,1,$1+$1,$4,$5,$6,$7,0*
20,1,$1+$1,$6,$7,$8,$9,0*
20,1,$1+$1,$8,$9,$2,$3,0*%
G04 Aperture macros list end*
%TA.AperFunction,ComponentPad*%
%ADD10R,0.900000X0.500000*%
%TD*%
%TA.AperFunction,ComponentPad*%
%ADD11RoundRect,0.225000X0.225000X0.475000X-0.225000X0.475000X-0.225000X-0.475000X0.225000X-0.475000X0*%
%TD*%
%TA.AperFunction,ComponentPad*%
%ADD12O,0.900000X1.400000*%
%TD*%
%TA.AperFunction,ViaPad*%
%ADD13C,0.600000*%
%TD*%
%TA.AperFunction,Conductor*%
%ADD14C,0.254000*%
%TD*%
%TA.AperFunction,Conductor*%
%ADD15C,0.200000*%
%TD*%
G04 APERTURE END LIST*
D10*
%TO.P,AE1,2*%
%TO.N,N/C*%
X149870000Y-84585000D03*
%TD*%
D11*
%TO.P,J1,1,Pin_1*%
%TO.N,VDD*%
X160625000Y-97790000D03*
D12*
%TO.P,J1,2,Pin_2*%
%TO.N,Net-(J1-Pin_2)*%
X159375000Y-97790000D03*
%TO.P,J1,3,Pin_3*%
%TO.N,Net-(J1-Pin_3)*%
X158125000Y-97790000D03*
%TO.P,J1,4,Pin_4*%
%TO.N,Net-(J1-Pin_4)*%
X156875000Y-97790000D03*
%TO.P,J1,5,Pin_5*%
%TO.N,Net-(J1-Pin_5)*%
X155625000Y-97790000D03*
%TO.P,J1,6,Pin_6*%
%TO.N,Net-(J1-Pin_6)*%
X154375000Y-97790000D03*
%TO.P,J1,7,Pin_7*%
%TO.N,Net-(J1-Pin_7)*%
X153125000Y-97790000D03*
%TO.P,J1,8,Pin_8*%
%TO.N,GNDREF*%
X151875000Y-97790000D03*
%TD*%
D13*
%TO.N,GNDREF*%
X150057500Y-85575000D03*
X149202500Y-85565000D03*
X157440000Y-85810000D03*
X161500000Y-85780000D03*
X155590000Y-92620000D03*
X162890000Y-88470000D03*
X164240000Y-85760000D03*
X156610000Y-91500000D03*
X162870000Y-85780000D03*
X163550000Y-85760000D03*
X158780000Y-86500000D03*
X159460000Y-86480000D03*
X162880000Y-87140000D03*
X157410000Y-86500000D03*
X159140000Y-90500000D03*
X163570000Y-87770000D03*
X156620000Y-92620000D03*
X164260000Y-87770000D03*
X155410000Y-85830000D03*
X153920000Y-85070000D03*
X156100000Y-85830000D03*
X162170000Y-87810000D03*
X163550000Y-86450000D03*
X160160000Y-85800000D03*
X164240000Y-86450000D03*
X160800000Y-86500000D03*
X158100000Y-86500000D03*
X162170000Y-86480000D03*
X161470000Y-87150000D03*
X164260000Y-88450000D03*
X150810000Y-86940000D03*
X159120000Y-92380000D03*
X154720000Y-86930000D03*
X162870000Y-86470000D03*
X162160000Y-87150000D03*
X162890000Y-87790000D03*
X154730000Y-88740000D03*
X163570000Y-88450000D03*
X162190000Y-85780000D03*
X158790000Y-85820000D03*
X160820000Y-85800000D03*
X160150000Y-86480000D03*
X158130000Y-85810000D03*
X155580000Y-91500000D03*
X161480000Y-86480000D03*
X159314265Y-89465735D03*
X156760000Y-85830000D03*
X159470000Y-85800000D03*
X164250000Y-87120000D03*
X163560000Y-87120000D03*
%TO.N,VDD*%
X154090000Y-89460000D03*
X152757164Y-92466122D03*
X153368353Y-90603000D03*
X159690000Y-94260000D03*
%TO.N,Net-(J1-Pin_3)*%
X157820000Y-96670000D03*
X157820000Y-95283000D03*
%TO.N,Net-(J1-Pin_7)*%
X161560000Y-95160000D03*
X159940000Y-95190000D03*
%TD*%
D14*
%TO.N,GNDREF*%
X152050000Y-86940000D02*
X150810000Y-86940000D01*
X159120000Y-92380000D02*
X159120000Y-90520000D01*
X154730000Y-86940000D02*
X154720000Y-86930000D01*
X159120000Y-90520000D02*
X159140000Y-90500000D01*
X154730000Y-88740000D02*
X154730000Y-86940000D01*
X153920000Y-85070000D02*
X152050000Y-86940000D01*
D15*
%TO.N,VDD*%
X158210000Y-94260000D02*
X154530000Y-90580000D01*
X154410000Y-89460000D02*
X154090000Y-89460000D01*
X159690000Y-94260000D02*
X158210000Y-94260000D01*
D14*
X152757164Y-92466122D02*
X152757164Y-91214189D01*
D15*
X154530000Y-90580000D02*
X154530000Y-89580000D01*
D14*
X152757164Y-91214189D02*
X153368353Y-90603000D01*
D15*
X154530000Y-89580000D02*
X154410000Y-89460000D01*
D14*
%TO.N,Net-(J1-Pin_3)*%
X157820000Y-95283000D02*
X157820000Y-96670000D01*
%TO.N,Net-(J1-Pin_7)*%
X161530000Y-95190000D02*
X161560000Y-95160000D01*
X159940000Y-95190000D02*
X161530000Y-95190000D01*
%TD*%
%TA.AperFunction,Conductor*%
%TO.N,GNDREF*%
G36*
X164615575Y-84929634D02*
G01*
X164682602Y-84949358D01*
X164728325Y-85002190D01*
X164739500Y-85053634D01*
X164739500Y-100135500D01*
X164719815Y-100202539D01*
X164667011Y-100248294D01*
X164615500Y-100259500D01*
X149044500Y-100259500D01*
X148977461Y-100239815D01*
X148931706Y-100187011D01*
X148920500Y-100135500D01*
X148920500Y-98133571D01*
X150925000Y-98133571D01*
X150961506Y-98317097D01*
X150961508Y-98317105D01*
X151033119Y-98489991D01*
X151033124Y-98490000D01*
X151137086Y-98645589D01*
X151137089Y-98645593D01*
X151269406Y-98777910D01*
X151269410Y-98777913D01*
X151424999Y-98881875D01*
X151425012Y-98881882D01*
X151597889Y-98953489D01*
X151597896Y-98953491D01*
X151625000Y-98958882D01*
X151625000Y-98040000D01*
X150925000Y-98040000D01*
X150925000Y-98133571D01*
X148920500Y-98133571D01*
X148920500Y-97750504D01*
X151575000Y-97750504D01*
X151575000Y-97829496D01*
X151595444Y-97905796D01*
X151634940Y-97974205D01*
X151690795Y-98030060D01*
X151759204Y-98069556D01*
X151835504Y-98090000D01*
X151914496Y-98090000D01*
X151990796Y-98069556D01*
X152059205Y-98030060D01*
X152115060Y-97974205D01*
X152125000Y-97956988D01*
X152125000Y-98958881D01*
X152152103Y-98953491D01*
X152152110Y-98953489D01*
X152324987Y-98881882D01*
X152325001Y-98881874D01*
X152430657Y-98811276D01*
X152497334Y-98790397D01*
X152564714Y-98808881D01*
X152568429Y-98811268D01*
X152674769Y-98882322D01*
X152847749Y-98953973D01*
X153031374Y-98990498D01*
X153031379Y-98990499D01*
X153031383Y-98990500D01*
X153031384Y-98990500D01*
X153218617Y-98990500D01*
X153218618Y-98990499D01*
X153402251Y-98953973D01*
X153575231Y-98882322D01*
X153575901Y-98881874D01*
X153681109Y-98811577D01*
X153747787Y-98790699D01*
X153815167Y-98809183D01*
X153818891Y-98811577D01*
X153924762Y-98882318D01*
X153924768Y-98882321D01*
X153924769Y-98882322D01*
X154097749Y-98953973D01*
X154281374Y-98990498D01*
X154281379Y-98990499D01*
X154281383Y-98990500D01*
X154281384Y-98990500D01*
X154468617Y-98990500D01*
X154468618Y-98990499D01*
X154652251Y-98953973D01*
X154825231Y-98882322D01*
X154825901Y-98881874D01*
X154931109Y-98811577D01*
X154997787Y-98790699D01*
X155065167Y-98809183D01*
X155068891Y-98811577D01*
X155174762Y-98882318D01*
X155174768Y-98882321D01*
X155174769Y-98882322D01*
X155347749Y-98953973D01*
X155531374Y-98990498D01*
X155531379Y-98990499D01*
X155531383Y-98990500D01*
X155531384Y-98990500D01*
X155718617Y-98990500D01*
X155718618Y-98990499D01*
X155902251Y-98953973D01*
X156075231Y-98882322D01*
X156075901Y-98881874D01*
X156181109Y-98811577D01*
X156247787Y-98790699D01*
X156315167Y-98809183D01*
X156318891Y-98811577D01*
X156424762Y-98882318D01*
X156424768Y-98882321D01*
X156424769Y-98882322D01*
X156597749Y-98953973D01*
X156781374Y-98990498D01*
X156781379Y-98990499D01*
X156781383Y-98990500D01*
X156781384Y-98990500D01*
X156968617Y-98990500D01*
X156968618Y-98990499D01*
X157152251Y-98953973D01*
X157325231Y-98882322D01*
X157325901Y-98881874D01*
X157431109Y-98811577D01*
X157497787Y-98790699D01*
X157565167Y-98809183D01*
X157568891Y-98811577D01*
X157674762Y-98882318D01*
X157674768Y-98882321D01*
X157674769Y-98882322D01*
X157847749Y-98953973D01*
X158031374Y-98990498D01*
X158031379Y-98990499D01*
X158031383Y-98990500D01*
X158031384Y-98990500D01*
X158218617Y-98990500D01*
X158218618Y-98990499D01*
X158402251Y-98953973D01*
X158575231Y-98882322D01*
X158575901Y-98881874D01*
X158681109Y-98811577D01*
X158747787Y-98790699D01*
X158815167Y-98809183D01*
X158818891Y-98811577D01*
X158924762Y-98882318D01*
X158924768Y-98882321D01*
X158924769Y-98882322D01*
X159097749Y-98953973D01*
X159281374Y-98990498D01*
X159281379Y-98990499D01*
X159281383Y-98990500D01*
X159281384Y-98990500D01*
X159468617Y-98990500D01*
X159468618Y-98990499D01*
X159652251Y-98953973D01*
X159825231Y-98882322D01*
X159851964Y-98864459D01*
X159918638Y-98843580D01*
X159985952Y-98862021D01*
X160091303Y-98927003D01*
X160252292Y-98980349D01*
X160351655Y-98990500D01*
X160898344Y-98990499D01*
X160898352Y-98990498D01*
X160898355Y-98990498D01*
X160952760Y-98984940D01*
X160997708Y-98980349D01*
X161158697Y-98927003D01*
X161303044Y-98837968D01*
X161422968Y-98718044D01*
X161512003Y-98573697D01*
X161565349Y-98412708D01*
X161575500Y-98313345D01*
X161575499Y-97266656D01*
X161565349Y-97167292D01*
X161512003Y-97006303D01*
X161511999Y-97006297D01*
X161511998Y-97006294D01*
X161422970Y-96861959D01*
X161422967Y-96861955D01*
X161303044Y-96742032D01*
X161303040Y-96742029D01*
X161158705Y-96653001D01*
X161158699Y-96652998D01*
X161158697Y-96652997D01*
X161078752Y-96626506D01*
X160997709Y-96599651D01*
X160898346Y-96589500D01*
X160351662Y-96589500D01*
X160351644Y-96589501D01*
X160252292Y-96599650D01*
X160252289Y-96599651D01*
X160091305Y-96652996D01*
X160091300Y-96652998D01*
X159985953Y-96717978D01*
X159918560Y-96736418D01*
X159851965Y-96715541D01*
X159825230Y-96697677D01*
X159652251Y-96626027D01*
X159652243Y-96626025D01*
X159468620Y-96589500D01*
X159468616Y-96589500D01*
X159281384Y-96589500D01*
X159281379Y-96589500D01*
X159097756Y-96626025D01*
X159097748Y-96626027D01*
X158924771Y-96697676D01*
X158924757Y-96697684D01*
X158818889Y-96768423D01*
X158752212Y-96789301D01*
X158684832Y-96770816D01*
X158680943Y-96768312D01*
X158680509Y-96768021D01*
X158635790Y-96714337D01*
X158627992Y-96676734D01*
X158626345Y-96676920D01*
X158605369Y-96490750D01*
X158605368Y-96490745D01*
X158545788Y-96320476D01*
X158466506Y-96194300D01*
X158447500Y-96128328D01*
X158447500Y-95824671D01*
X158466507Y-95758698D01*
X158545788Y-95632524D01*
X158545789Y-95632522D01*
X158605368Y-95462255D01*
X158605369Y-95462249D01*
X158625565Y-95283003D01*
X158625565Y-95282996D01*
X158605369Y-95103750D01*
X158605366Y-95103737D01*
X158577974Y-95025455D01*
X158574412Y-94955676D01*
X158609140Y-94895049D01*
X158671134Y-94862821D01*
X158695015Y-94860500D01*
X159033433Y-94860500D01*
X159100472Y-94880185D01*
X159146227Y-94932989D01*
X159156171Y-95002147D01*
X159154718Y-95009969D01*
X159134435Y-95189996D01*
X159134435Y-95190003D01*
X159154630Y-95369249D01*
X159154631Y-95369254D01*
X159214211Y-95539523D01*
X159272647Y-95632522D01*
X159310184Y-95692262D01*
X159437738Y-95819816D01*
X159590478Y-95915789D01*
X159675010Y-95945368D01*
X159760745Y-95975368D01*
X159760750Y-95975369D01*
X159939996Y-95995565D01*
X159940000Y-95995565D01*
X159940004Y-95995565D01*
X160119249Y-95975369D01*
X160119252Y-95975368D01*
X160119255Y-95975368D01*
X160289522Y-95915789D01*
X160415700Y-95836505D01*
X160481672Y-95817500D01*
X161066073Y-95817500D01*
X161132045Y-95836507D01*
X161210473Y-95885787D01*
X161210477Y-95885788D01*
X161210478Y-95885789D01*
X161296213Y-95915789D01*
X161380745Y-95945368D01*
X161380750Y-95945369D01*
X161559996Y-95965565D01*
X161560000Y-95965565D01*
X161560004Y-95965565D01*
X161739249Y-95945369D01*
X161739252Y-95945368D01*
X161739255Y-95945368D01*
X161909522Y-95885789D01*
X162062262Y-95789816D01*
X162189816Y-95662262D01*
X162285789Y-95509522D01*
X162345368Y-95339255D01*
X162351706Y-95283003D01*
X162365565Y-95160003D01*
X162365565Y-95159996D01*
X162345369Y-94980750D01*
X162345368Y-94980745D01*
X162336596Y-94955676D01*
X162285789Y-94810478D01*
X162267101Y-94780737D01*
X162189815Y-94657737D01*
X162062262Y-94530184D01*
X161909523Y-94434211D01*
X161739254Y-94374631D01*
X161739249Y-94374630D01*
X161560004Y-94354435D01*
X161559996Y-94354435D01*
X161380750Y-94374630D01*
X161380745Y-94374631D01*
X161210476Y-94434211D01*
X161057737Y-94530184D01*
X161052295Y-94534525D01*
X161050524Y-94532305D01*
X161000418Y-94559666D01*
X160974060Y-94562500D01*
X160600238Y-94562500D01*
X160533199Y-94542815D01*
X160487444Y-94490011D01*
X160477018Y-94424617D01*
X160495565Y-94260003D01*
X160495565Y-94259996D01*
X160475369Y-94080750D01*
X160475368Y-94080745D01*
X160415788Y-93910476D01*
X160319815Y-93757737D01*
X160192262Y-93630184D01*
X160039523Y-93534211D01*
X159869254Y-93474631D01*
X159869249Y-93474630D01*
X159690004Y-93454435D01*
X159689996Y-93454435D01*
X159510750Y-93474630D01*
X159510745Y-93474631D01*
X159340476Y-93534211D01*
X159187736Y-93630185D01*
X159184903Y-93632445D01*
X159182724Y-93633334D01*
X159181842Y-93633889D01*
X159181744Y-93633734D01*
X159120217Y-93658855D01*
X159107588Y-93659500D01*
X158510097Y-93659500D01*
X158443058Y-93639815D01*
X158422416Y-93623181D01*
X155166819Y-90367584D01*
X155133334Y-90306261D01*
X155130500Y-90279903D01*
X155130500Y-89669060D01*
X155130501Y-89669047D01*
X155130501Y-89500944D01*
X155089576Y-89348214D01*
X155089573Y-89348209D01*
X155010523Y-89211288D01*
X155010520Y-89211284D01*
X154890520Y-89091285D01*
X154890520Y-89091284D01*
X154778717Y-88979481D01*
X154778712Y-88979477D01*
X154704936Y-88936883D01*
X154679255Y-88917177D01*
X154592262Y-88830184D01*
X154439523Y-88734211D01*
X154269254Y-88674631D01*
X154269249Y-88674630D01*
X154090004Y-88654435D01*
X154089996Y-88654435D01*
X153910750Y-88674630D01*
X153910745Y-88674631D01*
X153740476Y-88734211D01*
X153587737Y-88830184D01*
X153460184Y-88957737D01*
X153364211Y-89110476D01*
X153304631Y-89280745D01*
X153304630Y-89280750D01*
X153284435Y-89459996D01*
X153284435Y-89460003D01*
X153304630Y-89639246D01*
X153304632Y-89639255D01*
X153308944Y-89651578D01*
X153312505Y-89721357D01*
X153277775Y-89781984D01*
X153215781Y-89814210D01*
X153205786Y-89815751D01*
X153189103Y-89817630D01*
X153018831Y-89877210D01*
X152866090Y-89973184D01*
X152738537Y-90100737D01*
X152642563Y-90253478D01*
X152582985Y-90423745D01*
X152578039Y-90467637D01*
X152550971Y-90532051D01*
X152542501Y-90541432D01*
X152357156Y-90726778D01*
X152313453Y-90770481D01*
X152269750Y-90814183D01*
X152269749Y-90814185D01*
X152200397Y-90917978D01*
X152198750Y-90922582D01*
X152153778Y-91031153D01*
X152153776Y-91031161D01*
X152132211Y-91139578D01*
X152129664Y-91152381D01*
X152129664Y-91924450D01*
X152110658Y-91990422D01*
X152031375Y-92116598D01*
X151971795Y-92286867D01*
X151971794Y-92286872D01*
X151951599Y-92466118D01*
X151951599Y-92466125D01*
X151971794Y-92645371D01*
X151971795Y-92645376D01*
X152031375Y-92815645D01*
X152127348Y-92968384D01*
X152254902Y-93095938D01*
X152407642Y-93191911D01*
X152577909Y-93251490D01*
X152577914Y-93251491D01*
X152757160Y-93271687D01*
X152757164Y-93271687D01*
X152757168Y-93271687D01*
X152936413Y-93251491D01*
X152936416Y-93251490D01*
X152936419Y-93251490D01*
X153106686Y-93191911D01*
X153259426Y-93095938D01*
X153386980Y-92968384D01*
X153482953Y-92815644D01*
X153542532Y-92645377D01*
X153562729Y-92466122D01*
X153542532Y-92286867D01*
X153482953Y-92116600D01*
X153403669Y-91990421D01*
X153384664Y-91924450D01*
X153384664Y-91525470D01*
X153404349Y-91458431D01*
X153420983Y-91437789D01*
X153429920Y-91428852D01*
X153491243Y-91395367D01*
X153503705Y-91393314D01*
X153547608Y-91388368D01*
X153717875Y-91328789D01*
X153870615Y-91232816D01*
X153998169Y-91105262D01*
X153998172Y-91105256D01*
X154002512Y-91099816D01*
X154004530Y-91101425D01*
X154047945Y-91062997D01*
X154116994Y-91052324D01*
X154180853Y-91080676D01*
X154188325Y-91087560D01*
X157475675Y-94374910D01*
X157509160Y-94436233D01*
X157504176Y-94505925D01*
X157462304Y-94561858D01*
X157453967Y-94567584D01*
X157317739Y-94653182D01*
X157190184Y-94780737D01*
X157094211Y-94933476D01*
X157034631Y-95103745D01*
X157034630Y-95103750D01*
X157014435Y-95282996D01*
X157014435Y-95283003D01*
X157034630Y-95462249D01*
X157034631Y-95462254D01*
X157094211Y-95632524D01*
X157173493Y-95758698D01*
X157192500Y-95824671D01*
X157192500Y-96128328D01*
X157173494Y-96194300D01*
X157094210Y-96320478D01*
X157034632Y-96490746D01*
X157034098Y-96493087D01*
X157033337Y-96494447D01*
X157032333Y-96497317D01*
X157031830Y-96497141D01*
X156999993Y-96554067D01*
X156938333Y-96586928D01*
X156913206Y-96589500D01*
X156781379Y-96589500D01*
X156597756Y-96626025D01*
X156597748Y-96626027D01*
X156424771Y-96697676D01*
X156424764Y-96697680D01*
X156318890Y-96768423D01*
X156252213Y-96789300D01*
X156184833Y-96770815D01*
X156181110Y-96768423D01*
X156075235Y-96697680D01*
X156075228Y-96697676D01*
X155902251Y-96626027D01*
X155902243Y-96626025D01*
X155718620Y-96589500D01*
X155718616Y-96589500D01*
X155531384Y-96589500D01*
X155531379Y-96589500D01*
X155347756Y-96626025D01*
X155347748Y-96626027D01*
X155174771Y-96697676D01*
X155174764Y-96697680D01*
X155068890Y-96768423D01*
X155002213Y-96789300D01*
X154934833Y-96770815D01*
X154931110Y-96768423D01*
X154825235Y-96697680D01*
X154825228Y-96697676D01*
X154652251Y-96626027D01*
X154652243Y-96626025D01*
X154468620Y-96589500D01*
X154468616Y-96589500D01*
X154281384Y-96589500D01*
X154281379Y-96589500D01*
X154097756Y-96626025D01*
X154097748Y-96626027D01*
X153924771Y-96697676D01*
X153924764Y-96697680D01*
X153818890Y-96768423D01*
X153752213Y-96789300D01*
X153684833Y-96770815D01*
X153681110Y-96768423D01*
X153575235Y-96697680D01*
X153575228Y-96697676D01*
X153402251Y-96626027D01*
X153402243Y-96626025D01*
X153218620Y-96589500D01*
X153218616Y-96589500D01*
X153031384Y-96589500D01*
X153031379Y-96589500D01*
X152847756Y-96626025D01*
X152847748Y-96626027D01*
X152674771Y-96697676D01*
X152674757Y-96697684D01*
X152568440Y-96768723D01*
X152501763Y-96789601D01*
X152434383Y-96771116D01*
X152430660Y-96768723D01*
X152325005Y-96698127D01*
X152324991Y-96698119D01*
X152152103Y-96626507D01*
X152152100Y-96626506D01*
X152125000Y-96621115D01*
X152125000Y-97623011D01*
X152115060Y-97605795D01*
X152059205Y-97549940D01*
X151990796Y-97510444D01*
X151914496Y-97490000D01*
X151835504Y-97490000D01*
X151759204Y-97510444D01*
X151690795Y-97549940D01*
X151634940Y-97605795D01*
X151595444Y-97674204D01*
X151575000Y-97750504D01*
X148920500Y-97750504D01*
X148920500Y-97446428D01*
X150925000Y-97446428D01*
X150925000Y-97540000D01*
X151625000Y-97540000D01*
X151625000Y-96621116D01*
X151624999Y-96621115D01*
X151597899Y-96626506D01*
X151597896Y-96626507D01*
X151425008Y-96698119D01*
X151424999Y-96698124D01*
X151269410Y-96802086D01*
X151269406Y-96802089D01*
X151137089Y-96934406D01*
X151137086Y-96934410D01*
X151033124Y-97089999D01*
X151033119Y-97090008D01*
X150961508Y-97262894D01*
X150961506Y-97262902D01*
X150925000Y-97446428D01*
X148920500Y-97446428D01*
X148920500Y-85334001D01*
X148940185Y-85266962D01*
X148992989Y-85221207D01*
X149062147Y-85211263D01*
X149118810Y-85234734D01*
X149161861Y-85266962D01*
X149177668Y-85278795D01*
X149177671Y-85278797D01*
X149312517Y-85329091D01*
X149312516Y-85329091D01*
X149319444Y-85329835D01*
X149372127Y-85335500D01*
X150367872Y-85335499D01*
X150427483Y-85329091D01*
X150562331Y-85278796D01*
X150677546Y-85192546D01*
X150763796Y-85077331D01*
X150791838Y-85002145D01*
X150833708Y-84946212D01*
X150899172Y-84921794D01*
X150908057Y-84921479D01*
X164615575Y-84929634D01*
G37*
%TD.AperFunction*%
%TD*%
M02*
