%TF.GenerationSoftware,KiCad,Pcbnew,8.0.5*%
%TF.CreationDate,2024-10-24T22:42:25-04:00*%
%TF.ProjectId,NRF24L01 2.4GHZ,4e524632-344c-4303-9120-322e3447485a,rev?*%
%TF.SameCoordinates,Original*%
%TF.FileFunction,Soldermask,Top*%
%TF.FilePolarity,Negative*%
%FSLAX46Y46*%
G04 Gerber Fmt 4.6, Leading zero omitted, Abs format (unit mm)*
G04 Created by KiCad (PCBNEW 8.0.5) date 2024-10-24 22:42:25*
%MOMM*%
%LPD*%
G01*
G04 APERTURE LIST*
G04 Aperture macros list*
%AMRoundRect*
0 Rectangle with rounded corners*
0 $1 Rounding radius*
0 $2 $3 $4 $5 $6 $7 $8 $9 X,Y pos of 4 corners*
0 Add a 4 corners polygon primitive as box body*
4,1,4,$2,$3,$4,$5,$6,$7,$8,$9,$2,$3,0*
0 Add four circle primitives for the rounded corners*
1,1,$1+$1,$2,$3*
1,1,$1+$1,$4,$5*
1,1,$1+$1,$6,$7*
1,1,$1+$1,$8,$9*
0 Add four rect primitives between the rounded corners*
20,1,$1+$1,$2,$3,$4,$5,0*
20,1,$1+$1,$4,$5,$6,$7,0*
20,1,$1+$1,$6,$7,$8,$9,0*
20,1,$1+$1,$8,$9,$2,$3,0*%
G04 Aperture macros list end*
%ADD10RoundRect,0.140000X-0.170000X0.140000X-0.170000X-0.140000X0.170000X-0.140000X0.170000X0.140000X0*%
%ADD11RoundRect,0.140000X-0.140000X-0.170000X0.140000X-0.170000X0.140000X0.170000X-0.140000X0.170000X0*%
%ADD12RoundRect,0.062500X0.062500X-0.350000X0.062500X0.350000X-0.062500X0.350000X-0.062500X-0.350000X0*%
%ADD13RoundRect,0.062500X0.350000X-0.062500X0.350000X0.062500X-0.350000X0.062500X-0.350000X-0.062500X0*%
%ADD14R,2.500000X2.500000*%
%ADD15RoundRect,0.140000X0.140000X0.170000X-0.140000X0.170000X-0.140000X-0.170000X0.140000X-0.170000X0*%
%ADD16RoundRect,0.135000X-0.185000X0.135000X-0.185000X-0.135000X0.185000X-0.135000X0.185000X0.135000X0*%
%ADD17RoundRect,0.147500X0.147500X0.172500X-0.147500X0.172500X-0.147500X-0.172500X0.147500X-0.172500X0*%
%ADD18RoundRect,0.135000X0.185000X-0.135000X0.185000X0.135000X-0.185000X0.135000X-0.185000X-0.135000X0*%
%ADD19RoundRect,0.147500X-0.147500X-0.172500X0.147500X-0.172500X0.147500X0.172500X-0.147500X0.172500X0*%
%ADD20RoundRect,0.225000X0.225000X0.475000X-0.225000X0.475000X-0.225000X-0.475000X0.225000X-0.475000X0*%
%ADD21O,0.900000X1.400000*%
%ADD22R,1.800000X1.000000*%
G04 APERTURE END LIST*
D10*
%TO.C,C10*%
X151720000Y-87280000D03*
X151720000Y-88240000D03*
%TD*%
D11*
%TO.C,C1*%
X163565000Y-91420000D03*
X164525000Y-91420000D03*
%TD*%
%TO.C,C6*%
X152960000Y-86880000D03*
X153920000Y-86880000D03*
%TD*%
D12*
%TO.C,U1*%
X155082500Y-94167500D03*
X155582500Y-94167500D03*
X156082500Y-94167500D03*
X156582500Y-94167500D03*
X157082500Y-94167500D03*
D13*
X158020000Y-93230000D03*
X158020000Y-92730000D03*
X158020000Y-92230000D03*
X158020000Y-91730000D03*
X158020000Y-91230000D03*
D12*
X157082500Y-90292500D03*
X156582500Y-90292500D03*
X156082500Y-90292500D03*
X155582500Y-90292500D03*
X155082500Y-90292500D03*
D13*
X154145000Y-91230000D03*
X154145000Y-91730000D03*
X154145000Y-92230000D03*
X154145000Y-92730000D03*
X154145000Y-93230000D03*
D14*
X156082500Y-92230000D03*
%TD*%
D15*
%TO.C,C9*%
X152670000Y-89260000D03*
X151710000Y-89260000D03*
%TD*%
D10*
%TO.C,C4*%
X158830000Y-87850000D03*
X158830000Y-88810000D03*
%TD*%
D16*
%TO.C,R2*%
X151840000Y-91230000D03*
X151840000Y-92250000D03*
%TD*%
D17*
%TO.C,L3*%
X155835000Y-87870000D03*
X154865000Y-87870000D03*
%TD*%
D11*
%TO.C,C11*%
X152960000Y-85870000D03*
X153920000Y-85870000D03*
%TD*%
D18*
%TO.C,R1*%
X162505000Y-91410000D03*
X162505000Y-90390000D03*
%TD*%
D15*
%TO.C,C8*%
X152680000Y-90290000D03*
X151720000Y-90290000D03*
%TD*%
D19*
%TO.C,L4*%
X151000000Y-85880000D03*
X151970000Y-85880000D03*
%TD*%
D11*
%TO.C,C2*%
X163555000Y-90390000D03*
X164515000Y-90390000D03*
%TD*%
D20*
%TO.C,J1*%
X160625000Y-97790000D03*
D21*
X159375000Y-97790000D03*
X158125000Y-97790000D03*
X156875000Y-97790000D03*
X155625000Y-97790000D03*
X154375000Y-97790000D03*
X153125000Y-97790000D03*
X151875000Y-97790000D03*
%TD*%
D15*
%TO.C,C5*%
X153920000Y-87870000D03*
X152960000Y-87870000D03*
%TD*%
D17*
%TO.C,L1*%
X156815000Y-88920000D03*
X155845000Y-88920000D03*
%TD*%
D19*
%TO.C,L2*%
X156825000Y-87860000D03*
X157795000Y-87860000D03*
%TD*%
D10*
%TO.C,C7*%
X151860000Y-93160000D03*
X151860000Y-94120000D03*
%TD*%
D22*
%TO.C,Y1*%
X160705000Y-92860000D03*
X160705000Y-90360000D03*
%TD*%
D10*
%TO.C,C3*%
X159850000Y-87850000D03*
X159850000Y-88810000D03*
%TD*%
M02*
