%TF.GenerationSoftware,KiCad,Pcbnew,8.0.5*%
%TF.CreationDate,2024-10-24T22:42:24-04:00*%
%TF.ProjectId,NRF24L01 2.4GHZ,4e524632-344c-4303-9120-322e3447485a,rev?*%
%TF.SameCoordinates,Original*%
%TF.FileFunction,Copper,L1,Top*%
%TF.FilePolarity,Positive*%
%FSLAX46Y46*%
G04 Gerber Fmt 4.6, Leading zero omitted, Abs format (unit mm)*
G04 Created by KiCad (PCBNEW 8.0.5) date 2024-10-24 22:42:24*
%MOMM*%
%LPD*%
G01*
G04 APERTURE LIST*
G04 Aperture macros list*
%AMRoundRect*
0 Rectangle with rounded corners*
0 $1 Rounding radius*
0 $2 $3 $4 $5 $6 $7 $8 $9 X,Y pos of 4 corners*
0 Add a 4 corners polygon primitive as box body*
4,1,4,$2,$3,$4,$5,$6,$7,$8,$9,$2,$3,0*
0 Add four circle primitives for the rounded corners*
1,1,$1+$1,$2,$3*
1,1,$1+$1,$4,$5*
1,1,$1+$1,$6,$7*
1,1,$1+$1,$8,$9*
0 Add four rect primitives between the rounded corners*
20,1,$1+$1,$2,$3,$4,$5,0*
20,1,$1+$1,$4,$5,$6,$7,0*
20,1,$1+$1,$6,$7,$8,$9,0*
20,1,$1+$1,$8,$9,$2,$3,0*%
G04 Aperture macros list end*
%TA.AperFunction,SMDPad,CuDef*%
%ADD10RoundRect,0.140000X-0.170000X0.140000X-0.170000X-0.140000X0.170000X-0.140000X0.170000X0.140000X0*%
%TD*%
%TA.AperFunction,SMDPad,CuDef*%
%ADD11RoundRect,0.140000X-0.140000X-0.170000X0.140000X-0.170000X0.140000X0.170000X-0.140000X0.170000X0*%
%TD*%
%TA.AperFunction,SMDPad,CuDef*%
%ADD12RoundRect,0.062500X0.062500X-0.350000X0.062500X0.350000X-0.062500X0.350000X-0.062500X-0.350000X0*%
%TD*%
%TA.AperFunction,SMDPad,CuDef*%
%ADD13RoundRect,0.062500X0.350000X-0.062500X0.350000X0.062500X-0.350000X0.062500X-0.350000X-0.062500X0*%
%TD*%
%TA.AperFunction,HeatsinkPad*%
%ADD14R,2.500000X2.500000*%
%TD*%
%TA.AperFunction,SMDPad,CuDef*%
%ADD15RoundRect,0.140000X0.140000X0.170000X-0.140000X0.170000X-0.140000X-0.170000X0.140000X-0.170000X0*%
%TD*%
%TA.AperFunction,SMDPad,CuDef*%
%ADD16RoundRect,0.135000X-0.185000X0.135000X-0.185000X-0.135000X0.185000X-0.135000X0.185000X0.135000X0*%
%TD*%
%TA.AperFunction,SMDPad,CuDef*%
%ADD17RoundRect,0.147500X0.147500X0.172500X-0.147500X0.172500X-0.147500X-0.172500X0.147500X-0.172500X0*%
%TD*%
%TA.AperFunction,SMDPad,CuDef*%
%ADD18RoundRect,0.135000X0.185000X-0.135000X0.185000X0.135000X-0.185000X0.135000X-0.185000X-0.135000X0*%
%TD*%
%TA.AperFunction,ConnectorPad*%
%ADD19R,0.500000X0.500000*%
%TD*%
%TA.AperFunction,ComponentPad*%
%ADD20R,0.900000X0.500000*%
%TD*%
%TA.AperFunction,SMDPad,CuDef*%
%ADD21RoundRect,0.147500X-0.147500X-0.172500X0.147500X-0.172500X0.147500X0.172500X-0.147500X0.172500X0*%
%TD*%
%TA.AperFunction,ComponentPad*%
%ADD22RoundRect,0.225000X0.225000X0.475000X-0.225000X0.475000X-0.225000X-0.475000X0.225000X-0.475000X0*%
%TD*%
%TA.AperFunction,ComponentPad*%
%ADD23O,0.900000X1.400000*%
%TD*%
%TA.AperFunction,SMDPad,CuDef*%
%ADD24R,1.800000X1.000000*%
%TD*%
%TA.AperFunction,ViaPad*%
%ADD25C,0.600000*%
%TD*%
%TA.AperFunction,Conductor*%
%ADD26C,0.508000*%
%TD*%
%TA.AperFunction,Conductor*%
%ADD27C,0.254000*%
%TD*%
%TA.AperFunction,Conductor*%
%ADD28C,0.200000*%
%TD*%
G04 APERTURE END LIST*
D10*
%TO.P,C10,1*%
%TO.N,Net-(C10-Pad1)*%
X151720000Y-87280000D03*
%TO.P,C10,2*%
%TO.N,GNDREF*%
X151720000Y-88240000D03*
%TD*%
D11*
%TO.P,C1,1*%
%TO.N,Net-(U1-XC2)*%
X163565000Y-91420000D03*
%TO.P,C1,2*%
%TO.N,GNDREF*%
X164525000Y-91420000D03*
%TD*%
%TO.P,C6,1*%
%TO.N,Net-(C10-Pad1)*%
X152960000Y-86880000D03*
%TO.P,C6,2*%
%TO.N,GNDREF*%
X153920000Y-86880000D03*
%TD*%
D12*
%TO.P,U1,1,CE*%
%TO.N,Net-(J1-Pin_6)*%
X155082500Y-94167500D03*
%TO.P,U1,2,CSN*%
%TO.N,Net-(J1-Pin_5)*%
X155582500Y-94167500D03*
%TO.P,U1,3,SCK*%
%TO.N,Net-(J1-Pin_4)*%
X156082500Y-94167500D03*
%TO.P,U1,4,MOSI*%
%TO.N,Net-(J1-Pin_2)*%
X156582500Y-94167500D03*
%TO.P,U1,5,MISO*%
%TO.N,Net-(J1-Pin_3)*%
X157082500Y-94167500D03*
D13*
%TO.P,U1,6,IRQ*%
%TO.N,Net-(J1-Pin_7)*%
X158020000Y-93230000D03*
%TO.P,U1,7,VDD*%
%TO.N,VDD*%
X158020000Y-92730000D03*
%TO.P,U1,8,VSS*%
%TO.N,GNDREF*%
X158020000Y-92230000D03*
%TO.P,U1,9,XC2*%
%TO.N,Net-(U1-XC2)*%
X158020000Y-91730000D03*
%TO.P,U1,10,XC1*%
%TO.N,Net-(U1-XC1)*%
X158020000Y-91230000D03*
D12*
%TO.P,U1,11,VDD_PA*%
%TO.N,Net-(U1-VDD_PA)*%
X157082500Y-90292500D03*
%TO.P,U1,12,ANT1*%
%TO.N,Net-(U1-ANT1)*%
X156582500Y-90292500D03*
%TO.P,U1,13,ANT2*%
%TO.N,Net-(U1-ANT2)*%
X156082500Y-90292500D03*
%TO.P,U1,14,VSS*%
%TO.N,GNDREF*%
X155582500Y-90292500D03*
%TO.P,U1,15,VDD*%
%TO.N,VDD*%
X155082500Y-90292500D03*
D13*
%TO.P,U1,16,IREF*%
%TO.N,Net-(U1-IREF)*%
X154145000Y-91230000D03*
%TO.P,U1,17,VSS*%
%TO.N,GNDREF*%
X154145000Y-91730000D03*
%TO.P,U1,18,VDD*%
%TO.N,VDD*%
X154145000Y-92230000D03*
%TO.P,U1,19,DVDD*%
%TO.N,Net-(U1-DVDD)*%
X154145000Y-92730000D03*
%TO.P,U1,20,VSS*%
%TO.N,GNDREF*%
X154145000Y-93230000D03*
D14*
%TO.P,U1,21*%
%TO.N,N/C*%
X156082500Y-92230000D03*
%TD*%
D15*
%TO.P,C9,1*%
%TO.N,VDD*%
X152670000Y-89260000D03*
%TO.P,C9,2*%
%TO.N,GNDREF*%
X151710000Y-89260000D03*
%TD*%
D10*
%TO.P,C4,1*%
%TO.N,Net-(U1-VDD_PA)*%
X158830000Y-87850000D03*
%TO.P,C4,2*%
%TO.N,GNDREF*%
X158830000Y-88810000D03*
%TD*%
D16*
%TO.P,R2,1*%
%TO.N,Net-(U1-IREF)*%
X151840000Y-91230000D03*
%TO.P,R2,2*%
%TO.N,GNDREF*%
X151840000Y-92250000D03*
%TD*%
D17*
%TO.P,L3,1,1*%
%TO.N,Net-(U1-ANT2)*%
X155835000Y-87870000D03*
%TO.P,L3,2,2*%
%TO.N,Net-(C5-Pad1)*%
X154865000Y-87870000D03*
%TD*%
D11*
%TO.P,C11,1*%
%TO.N,Net-(AE1-A)*%
X152960000Y-85870000D03*
%TO.P,C11,2*%
%TO.N,GNDREF*%
X153920000Y-85870000D03*
%TD*%
D18*
%TO.P,R1,1*%
%TO.N,Net-(U1-XC2)*%
X162505000Y-91410000D03*
%TO.P,R1,2*%
%TO.N,Net-(U1-XC1)*%
X162505000Y-90390000D03*
%TD*%
D19*
%TO.P,AE1,1,A*%
%TO.N,Net-(AE1-A)*%
X151970000Y-84585000D03*
D20*
%TO.P,AE1,2*%
%TO.N,N/C*%
X149870000Y-84585000D03*
%TD*%
D15*
%TO.P,C8,1*%
%TO.N,VDD*%
X152680000Y-90290000D03*
%TO.P,C8,2*%
%TO.N,GNDREF*%
X151720000Y-90290000D03*
%TD*%
D21*
%TO.P,L4,1,1*%
%TO.N,Net-(C10-Pad1)*%
X151000000Y-85880000D03*
%TO.P,L4,2,2*%
%TO.N,Net-(AE1-A)*%
X151970000Y-85880000D03*
%TD*%
D11*
%TO.P,C2,1*%
%TO.N,Net-(U1-XC1)*%
X163555000Y-90390000D03*
%TO.P,C2,2*%
%TO.N,GNDREF*%
X164515000Y-90390000D03*
%TD*%
D22*
%TO.P,J1,1,Pin_1*%
%TO.N,VDD*%
X160625000Y-97790000D03*
D23*
%TO.P,J1,2,Pin_2*%
%TO.N,Net-(J1-Pin_2)*%
X159375000Y-97790000D03*
%TO.P,J1,3,Pin_3*%
%TO.N,Net-(J1-Pin_3)*%
X158125000Y-97790000D03*
%TO.P,J1,4,Pin_4*%
%TO.N,Net-(J1-Pin_4)*%
X156875000Y-97790000D03*
%TO.P,J1,5,Pin_5*%
%TO.N,Net-(J1-Pin_5)*%
X155625000Y-97790000D03*
%TO.P,J1,6,Pin_6*%
%TO.N,Net-(J1-Pin_6)*%
X154375000Y-97790000D03*
%TO.P,J1,7,Pin_7*%
%TO.N,Net-(J1-Pin_7)*%
X153125000Y-97790000D03*
%TO.P,J1,8,Pin_8*%
%TO.N,GNDREF*%
X151875000Y-97790000D03*
%TD*%
D15*
%TO.P,C5,1*%
%TO.N,Net-(C5-Pad1)*%
X153920000Y-87870000D03*
%TO.P,C5,2*%
%TO.N,Net-(C10-Pad1)*%
X152960000Y-87870000D03*
%TD*%
D17*
%TO.P,L1,1,1*%
%TO.N,Net-(U1-ANT1)*%
X156815000Y-88920000D03*
%TO.P,L1,2,2*%
%TO.N,Net-(U1-ANT2)*%
X155845000Y-88920000D03*
%TD*%
D21*
%TO.P,L2,1,1*%
%TO.N,Net-(U1-ANT1)*%
X156825000Y-87860000D03*
%TO.P,L2,2,2*%
%TO.N,Net-(U1-VDD_PA)*%
X157795000Y-87860000D03*
%TD*%
D10*
%TO.P,C7,1*%
%TO.N,Net-(U1-DVDD)*%
X151860000Y-93160000D03*
%TO.P,C7,2*%
%TO.N,GNDREF*%
X151860000Y-94120000D03*
%TD*%
D24*
%TO.P,Y1,1,1*%
%TO.N,Net-(U1-XC2)*%
X160705000Y-92860000D03*
%TO.P,Y1,2,2*%
%TO.N,Net-(U1-XC1)*%
X160705000Y-90360000D03*
%TD*%
D10*
%TO.P,C3,1*%
%TO.N,Net-(U1-VDD_PA)*%
X159850000Y-87850000D03*
%TO.P,C3,2*%
%TO.N,GNDREF*%
X159850000Y-88810000D03*
%TD*%
D25*
%TO.N,GNDREF*%
X150057500Y-85575000D03*
X149202500Y-85565000D03*
X157440000Y-85810000D03*
X161500000Y-85780000D03*
X155590000Y-92620000D03*
X162890000Y-88470000D03*
X164240000Y-85760000D03*
X156610000Y-91500000D03*
X162870000Y-85780000D03*
X163550000Y-85760000D03*
X158780000Y-86500000D03*
X159460000Y-86480000D03*
X162880000Y-87140000D03*
X157410000Y-86500000D03*
X159140000Y-90500000D03*
X163570000Y-87770000D03*
X156620000Y-92620000D03*
X164260000Y-87770000D03*
X155410000Y-85830000D03*
X153920000Y-85070000D03*
X156100000Y-85830000D03*
X162170000Y-87810000D03*
X163550000Y-86450000D03*
X160160000Y-85800000D03*
X164240000Y-86450000D03*
X160800000Y-86500000D03*
X158100000Y-86500000D03*
X162170000Y-86480000D03*
X161470000Y-87150000D03*
X164260000Y-88450000D03*
X150810000Y-86940000D03*
X159120000Y-92380000D03*
X154720000Y-86930000D03*
X162870000Y-86470000D03*
X162160000Y-87150000D03*
X162890000Y-87790000D03*
X154730000Y-88740000D03*
X163570000Y-88450000D03*
X162190000Y-85780000D03*
X158790000Y-85820000D03*
X160820000Y-85800000D03*
X160150000Y-86480000D03*
X158130000Y-85810000D03*
X155580000Y-91500000D03*
X161480000Y-86480000D03*
X159314265Y-89465735D03*
X156760000Y-85830000D03*
X159470000Y-85800000D03*
X164250000Y-87120000D03*
X163560000Y-87120000D03*
%TO.N,VDD*%
X154090000Y-89460000D03*
X152757164Y-92466122D03*
X153368353Y-90603000D03*
X159690000Y-94260000D03*
%TO.N,Net-(J1-Pin_3)*%
X157820000Y-96670000D03*
X157820000Y-95283000D03*
%TO.N,Net-(J1-Pin_7)*%
X161560000Y-95160000D03*
X159940000Y-95190000D03*
%TD*%
D26*
%TO.N,Net-(AE1-A)*%
X151980000Y-85870000D02*
X151970000Y-85880000D01*
X151970000Y-85880000D02*
X151970000Y-84585000D01*
X152960000Y-85870000D02*
X151980000Y-85870000D01*
D27*
%TO.N,GNDREF*%
X151875000Y-94135000D02*
X151860000Y-94120000D01*
X158020000Y-92230000D02*
X158970000Y-92230000D01*
X161365000Y-89400000D02*
X164025000Y-89400000D01*
X152920000Y-94120000D02*
X153300000Y-93740000D01*
X151140000Y-91780000D02*
X151290000Y-91930000D01*
X152317108Y-91730000D02*
X154145000Y-91730000D01*
X158830000Y-88981470D02*
X159314265Y-89465735D01*
X151030000Y-93900000D02*
X151250000Y-94120000D01*
X160485000Y-88810000D02*
X160630000Y-88665000D01*
D28*
X160000000Y-88810000D02*
X159850000Y-88810000D01*
D27*
X154730000Y-88974932D02*
X154730000Y-88740000D01*
X153970000Y-86930000D02*
X153920000Y-86880000D01*
D26*
X151720000Y-89250000D02*
X151710000Y-89260000D01*
D27*
X158830000Y-88810000D02*
X158830000Y-88981470D01*
X164515000Y-90390000D02*
X164515000Y-91410000D01*
X160350000Y-86930000D02*
X154720000Y-86930000D01*
X150810000Y-86940000D02*
X150810000Y-87990000D01*
X153300000Y-93452052D02*
X153522052Y-93230000D01*
X153920000Y-85870000D02*
X153920000Y-85070000D01*
X159850000Y-88810000D02*
X160485000Y-88810000D01*
X159140000Y-89640000D02*
X159314265Y-89465735D01*
D26*
X151720000Y-89370000D02*
X151720000Y-90390000D01*
D27*
X155582500Y-89827432D02*
X154730000Y-88974932D01*
X151840000Y-92207108D02*
X152317108Y-91730000D01*
X151840000Y-92250000D02*
X151840000Y-92207108D01*
X154720000Y-86930000D02*
X153970000Y-86930000D01*
X151030000Y-92510000D02*
X151030000Y-93900000D01*
X158970000Y-92230000D02*
X159120000Y-92380000D01*
X164025000Y-89400000D02*
X164515000Y-89890000D01*
X153300000Y-93740000D02*
X153300000Y-93452052D01*
X161365000Y-89400000D02*
X160630000Y-88665000D01*
X151290000Y-91930000D02*
X151290000Y-92250000D01*
X151840000Y-92250000D02*
X151290000Y-92250000D01*
X151875000Y-97790000D02*
X151875000Y-94135000D01*
X151860000Y-94120000D02*
X152920000Y-94120000D01*
X159140000Y-90500000D02*
X159140000Y-89640000D01*
X151060000Y-88240000D02*
X151720000Y-88240000D01*
X164515000Y-91410000D02*
X164525000Y-91420000D01*
D26*
X151720000Y-88240000D02*
X151720000Y-89250000D01*
D27*
X150810000Y-87990000D02*
X151060000Y-88240000D01*
X164515000Y-89890000D02*
X164515000Y-90390000D01*
X151290000Y-92250000D02*
X151030000Y-92510000D01*
X151340000Y-90290000D02*
X151140000Y-90490000D01*
X160630000Y-88665000D02*
X160630000Y-87210000D01*
X151140000Y-90490000D02*
X151140000Y-91780000D01*
D26*
X151720000Y-90390000D02*
X151730000Y-90400000D01*
D27*
X155582500Y-90292500D02*
X155582500Y-89827432D01*
X160630000Y-87210000D02*
X160350000Y-86930000D01*
X151250000Y-94120000D02*
X151860000Y-94120000D01*
X151720000Y-90290000D02*
X151340000Y-90290000D01*
D26*
X158830000Y-88810000D02*
X159850000Y-88810000D01*
D27*
X153522052Y-93230000D02*
X154145000Y-93230000D01*
D26*
X153920000Y-85870000D02*
X153920000Y-86880000D01*
D27*
%TO.N,Net-(U1-XC2)*%
X162515000Y-91420000D02*
X162505000Y-91410000D01*
X158020000Y-91730000D02*
X160145000Y-91730000D01*
X160705000Y-92290000D02*
X160705000Y-92860000D01*
X163565000Y-91420000D02*
X162515000Y-91420000D01*
X160145000Y-91730000D02*
X160705000Y-92290000D01*
X162505000Y-92280000D02*
X161925000Y-92860000D01*
X162505000Y-91410000D02*
X162505000Y-92280000D01*
X161925000Y-92860000D02*
X160705000Y-92860000D01*
%TO.N,Net-(U1-XC1)*%
X160175000Y-91230000D02*
X160705000Y-90700000D01*
X160705000Y-90700000D02*
X160705000Y-90360000D01*
X158020000Y-91230000D02*
X160175000Y-91230000D01*
X160735000Y-90390000D02*
X160705000Y-90360000D01*
X163555000Y-90390000D02*
X162505000Y-90390000D01*
X162505000Y-90390000D02*
X160735000Y-90390000D01*
%TO.N,Net-(U1-VDD_PA)*%
X157540000Y-89835000D02*
X157540000Y-89370000D01*
D26*
X157795000Y-87860000D02*
X158820000Y-87860000D01*
X159850000Y-87850000D02*
X158830000Y-87850000D01*
D27*
X157082500Y-90292500D02*
X157540000Y-89835000D01*
D26*
X158820000Y-87860000D02*
X158830000Y-87850000D01*
D27*
X157540000Y-89370000D02*
X157795000Y-89115000D01*
X157795000Y-89115000D02*
X157795000Y-87860000D01*
D26*
%TO.N,Net-(C5-Pad1)*%
X153920000Y-87870000D02*
X154865000Y-87870000D01*
D27*
%TO.N,Net-(C10-Pad1)*%
X151650000Y-86880000D02*
X152960000Y-86880000D01*
X151720000Y-87280000D02*
X151720000Y-86950000D01*
D26*
X152960000Y-86880000D02*
X152960000Y-87870000D01*
D27*
X151000000Y-85880000D02*
X151000000Y-86230000D01*
X151000000Y-86230000D02*
X151650000Y-86880000D01*
X151720000Y-86950000D02*
X151650000Y-86880000D01*
%TO.N,Net-(U1-DVDD)*%
X153380000Y-92730000D02*
X154145000Y-92730000D01*
X152950000Y-93160000D02*
X153380000Y-92730000D01*
X151860000Y-93160000D02*
X152950000Y-93160000D01*
%TO.N,VDD*%
X152993286Y-92230000D02*
X152757164Y-92466122D01*
X158870000Y-93564000D02*
X159056000Y-93750000D01*
D26*
X152670000Y-89260000D02*
X152670000Y-90280000D01*
D28*
X155082500Y-90292500D02*
X154922500Y-90292500D01*
D27*
X153368353Y-90603000D02*
X154772000Y-90603000D01*
X159820000Y-93750000D02*
X160350000Y-93750000D01*
X159056000Y-93750000D02*
X159820000Y-93750000D01*
D28*
X152980000Y-90290000D02*
X152982500Y-90292500D01*
D27*
X160350000Y-93750000D02*
X160625000Y-94025000D01*
X158870000Y-93114932D02*
X158870000Y-93564000D01*
D26*
X152670000Y-90280000D02*
X152680000Y-90290000D01*
D28*
X154922500Y-90292500D02*
X154090000Y-89460000D01*
X159690000Y-94260000D02*
X159690000Y-93880000D01*
X152982500Y-90292500D02*
X155082500Y-90292500D01*
X152680000Y-90290000D02*
X152980000Y-90290000D01*
D27*
X160625000Y-94025000D02*
X160625000Y-97790000D01*
X154145000Y-92230000D02*
X152993286Y-92230000D01*
X154772000Y-90603000D02*
X155082500Y-90292500D01*
X158020000Y-92730000D02*
X158485068Y-92730000D01*
X158485068Y-92730000D02*
X158870000Y-93114932D01*
D28*
X159690000Y-93880000D02*
X159820000Y-93750000D01*
D27*
%TO.N,Net-(J1-Pin_5)*%
X155582500Y-97747500D02*
X155625000Y-97790000D01*
X155582500Y-94167500D02*
X155582500Y-97747500D01*
%TO.N,Net-(J1-Pin_6)*%
X155082500Y-95107500D02*
X154375000Y-95815000D01*
X155082500Y-94167500D02*
X155082500Y-95107500D01*
X154375000Y-95815000D02*
X154375000Y-97790000D01*
%TO.N,Net-(J1-Pin_3)*%
X157082500Y-94545500D02*
X157820000Y-95283000D01*
X157820000Y-97485000D02*
X158125000Y-97790000D01*
X157820000Y-96670000D02*
X157820000Y-97485000D01*
X157082500Y-94167500D02*
X157082500Y-94545500D01*
%TO.N,Net-(J1-Pin_7)*%
X158020000Y-94230000D02*
X158070000Y-94280000D01*
X153540000Y-99050000D02*
X161140000Y-99050000D01*
X158070000Y-94280000D02*
X158980000Y-95190000D01*
X158020000Y-93230000D02*
X158020000Y-94230000D01*
X161560000Y-98630000D02*
X161560000Y-95160000D01*
X153125000Y-97790000D02*
X153125000Y-98635000D01*
X158980000Y-95190000D02*
X159940000Y-95190000D01*
X161140000Y-99050000D02*
X161560000Y-98630000D01*
X153125000Y-98635000D02*
X153540000Y-99050000D01*
%TO.N,Net-(J1-Pin_2)*%
X159375000Y-97790000D02*
X159375000Y-97336000D01*
X156582500Y-95112500D02*
X156582500Y-94167500D01*
X159375000Y-97336000D02*
X159380000Y-97331000D01*
X159380000Y-97331000D02*
X159380000Y-96490000D01*
X157380000Y-95910000D02*
X156582500Y-95112500D01*
X159380000Y-96490000D02*
X158840000Y-95950000D01*
X158840000Y-95910000D02*
X157380000Y-95910000D01*
X158840000Y-95950000D02*
X158840000Y-95910000D01*
%TO.N,Net-(J1-Pin_4)*%
X156082500Y-96032500D02*
X156875000Y-96825000D01*
X156082500Y-94167500D02*
X156082500Y-96032500D01*
X156875000Y-96825000D02*
X156875000Y-97790000D01*
%TO.N,Net-(U1-ANT1)*%
X156815000Y-88920000D02*
X156582500Y-89152500D01*
X156582500Y-89152500D02*
X156582500Y-90292500D01*
D26*
X156825000Y-88910000D02*
X156815000Y-88920000D01*
X156825000Y-87860000D02*
X156825000Y-88910000D01*
D27*
%TO.N,Net-(U1-ANT2)*%
X155845000Y-88920000D02*
X156082500Y-89157500D01*
X156082500Y-89157500D02*
X156082500Y-90292500D01*
D26*
X155835000Y-87870000D02*
X155835000Y-88910000D01*
X155835000Y-88910000D02*
X155845000Y-88920000D01*
D27*
%TO.N,Net-(U1-IREF)*%
X151840000Y-91230000D02*
X154145000Y-91230000D01*
%TD*%
%TA.AperFunction,Conductor*%
%TO.N,GNDREF*%
G36*
X164682539Y-84949685D02*
G01*
X164728294Y-85002489D01*
X164739500Y-85054000D01*
X164739500Y-100135500D01*
X164719815Y-100202539D01*
X164667011Y-100248294D01*
X164615500Y-100259500D01*
X149044500Y-100259500D01*
X148977461Y-100239815D01*
X148931706Y-100187011D01*
X148920500Y-100135500D01*
X148920500Y-98133571D01*
X150925000Y-98133571D01*
X150961506Y-98317097D01*
X150961508Y-98317105D01*
X151033119Y-98489991D01*
X151033124Y-98490000D01*
X151137086Y-98645589D01*
X151137089Y-98645593D01*
X151269406Y-98777910D01*
X151269410Y-98777913D01*
X151424999Y-98881875D01*
X151425012Y-98881882D01*
X151597889Y-98953489D01*
X151597896Y-98953491D01*
X151625000Y-98958882D01*
X151625000Y-98040000D01*
X150925000Y-98040000D01*
X150925000Y-98133571D01*
X148920500Y-98133571D01*
X148920500Y-97446428D01*
X150925000Y-97446428D01*
X150925000Y-97540000D01*
X151625000Y-97540000D01*
X151625000Y-96621116D01*
X151624999Y-96621115D01*
X151597899Y-96626506D01*
X151597896Y-96626507D01*
X151425008Y-96698119D01*
X151424999Y-96698124D01*
X151269410Y-96802086D01*
X151269406Y-96802089D01*
X151137089Y-96934406D01*
X151137086Y-96934410D01*
X151033124Y-97089999D01*
X151033119Y-97090008D01*
X150961508Y-97262894D01*
X150961506Y-97262902D01*
X150925000Y-97446428D01*
X148920500Y-97446428D01*
X148920500Y-94370000D01*
X151055496Y-94370000D01*
X151097968Y-94516195D01*
X151180278Y-94655374D01*
X151180285Y-94655383D01*
X151294616Y-94769714D01*
X151294625Y-94769721D01*
X151433804Y-94852031D01*
X151589089Y-94897145D01*
X151610000Y-94898789D01*
X152110000Y-94898789D01*
X152130910Y-94897145D01*
X152286195Y-94852031D01*
X152425374Y-94769721D01*
X152425383Y-94769714D01*
X152539714Y-94655383D01*
X152539721Y-94655374D01*
X152622031Y-94516195D01*
X152664504Y-94370000D01*
X152110000Y-94370000D01*
X152110000Y-94898789D01*
X151610000Y-94898789D01*
X151610000Y-94370000D01*
X151055496Y-94370000D01*
X148920500Y-94370000D01*
X148920500Y-89510000D01*
X150931210Y-89510000D01*
X150932854Y-89530910D01*
X150977968Y-89686195D01*
X150977970Y-89686199D01*
X150998157Y-89720334D01*
X151015340Y-89788058D01*
X150998159Y-89846572D01*
X150987968Y-89863803D01*
X150987966Y-89863809D01*
X150942855Y-90019081D01*
X150942854Y-90019087D01*
X150941209Y-90039999D01*
X150941210Y-90040000D01*
X151460000Y-90040000D01*
X151460000Y-89510000D01*
X150931210Y-89510000D01*
X148920500Y-89510000D01*
X148920500Y-88490000D01*
X150915496Y-88490000D01*
X150957968Y-88636195D01*
X150989071Y-88688787D01*
X151006254Y-88756511D01*
X150989072Y-88815028D01*
X150977968Y-88833803D01*
X150977967Y-88833806D01*
X150932855Y-88989081D01*
X150932854Y-88989087D01*
X150931209Y-89009999D01*
X150931210Y-89010000D01*
X151460000Y-89010000D01*
X151460000Y-88490000D01*
X150915496Y-88490000D01*
X148920500Y-88490000D01*
X148920500Y-85334001D01*
X148940185Y-85266962D01*
X148992989Y-85221207D01*
X149062147Y-85211263D01*
X149118810Y-85234734D01*
X149161861Y-85266962D01*
X149177668Y-85278795D01*
X149177671Y-85278797D01*
X149312517Y-85329091D01*
X149312516Y-85329091D01*
X149319444Y-85329835D01*
X149372127Y-85335500D01*
X150120630Y-85335499D01*
X150187669Y-85355183D01*
X150233424Y-85407987D01*
X150243368Y-85477146D01*
X150239706Y-85494094D01*
X150207391Y-85605320D01*
X150207390Y-85605326D01*
X150204500Y-85642052D01*
X150204500Y-86117947D01*
X150207390Y-86154673D01*
X150207391Y-86154679D01*
X150253066Y-86311892D01*
X150253068Y-86311895D01*
X150336408Y-86452817D01*
X150336414Y-86452825D01*
X150452174Y-86568585D01*
X150452177Y-86568587D01*
X150452180Y-86568590D01*
X150459911Y-86573162D01*
X150499889Y-86611001D01*
X150512591Y-86630011D01*
X150873181Y-86990600D01*
X150906666Y-87051923D01*
X150909500Y-87078281D01*
X150909500Y-87484697D01*
X150912356Y-87520991D01*
X150912357Y-87520997D01*
X150957504Y-87676390D01*
X150957507Y-87676397D01*
X150969910Y-87697370D01*
X150987093Y-87765094D01*
X150969912Y-87823608D01*
X150957968Y-87843804D01*
X150915496Y-87990000D01*
X151221648Y-87990000D01*
X151284766Y-88007267D01*
X151293605Y-88012494D01*
X151293608Y-88012494D01*
X151293610Y-88012496D01*
X151449002Y-88057642D01*
X151449005Y-88057642D01*
X151449007Y-88057643D01*
X151485310Y-88060500D01*
X151485318Y-88060500D01*
X151846000Y-88060500D01*
X151913039Y-88080185D01*
X151958794Y-88132989D01*
X151970000Y-88184500D01*
X151970000Y-88744738D01*
X151952733Y-88807857D01*
X151944335Y-88822057D01*
X151937504Y-88833608D01*
X151937504Y-88833609D01*
X151892357Y-88989002D01*
X151892356Y-88989008D01*
X151889500Y-89025302D01*
X151889500Y-89494697D01*
X151892356Y-89530991D01*
X151892357Y-89530993D01*
X151908191Y-89585494D01*
X151910576Y-89593701D01*
X151915500Y-89628297D01*
X151915500Y-89956121D01*
X151910576Y-89990716D01*
X151902357Y-90019002D01*
X151902356Y-90019008D01*
X151899500Y-90055302D01*
X151899500Y-90335500D01*
X151879815Y-90402539D01*
X151827011Y-90448294D01*
X151775501Y-90459500D01*
X151590830Y-90459500D01*
X151590808Y-90459501D01*
X151554794Y-90462335D01*
X151400611Y-90507129D01*
X151400602Y-90507133D01*
X151374226Y-90522732D01*
X151311106Y-90540000D01*
X150941210Y-90540000D01*
X150942854Y-90560910D01*
X150987968Y-90716195D01*
X150987968Y-90716196D01*
X151037975Y-90800753D01*
X151055158Y-90868478D01*
X151050320Y-90898467D01*
X151022336Y-90994793D01*
X151022334Y-90994802D01*
X151019500Y-91030811D01*
X151019500Y-91429169D01*
X151019501Y-91429191D01*
X151022335Y-91465205D01*
X151067129Y-91619388D01*
X151067130Y-91619391D01*
X151101419Y-91677371D01*
X151118601Y-91745095D01*
X151101419Y-91803611D01*
X151067594Y-91860806D01*
X151027156Y-92000000D01*
X151579591Y-92000000D01*
X151589318Y-92000382D01*
X151589516Y-92000397D01*
X151590819Y-92000500D01*
X151897239Y-92000499D01*
X151964277Y-92020183D01*
X152010032Y-92072987D01*
X152019976Y-92142146D01*
X152014280Y-92165453D01*
X151969496Y-92293439D01*
X151967298Y-92292670D01*
X151938553Y-92344067D01*
X151876893Y-92376928D01*
X151851766Y-92379500D01*
X151625302Y-92379500D01*
X151589008Y-92382356D01*
X151589002Y-92382357D01*
X151433609Y-92427504D01*
X151433606Y-92427505D01*
X151340223Y-92482732D01*
X151277102Y-92500000D01*
X151027156Y-92500000D01*
X151067595Y-92639194D01*
X151084575Y-92667906D01*
X151101758Y-92735630D01*
X151096919Y-92765622D01*
X151052357Y-92919002D01*
X151052356Y-92919008D01*
X151049500Y-92955302D01*
X151049500Y-93364697D01*
X151052356Y-93400991D01*
X151052357Y-93400997D01*
X151097504Y-93556390D01*
X151097507Y-93556397D01*
X151109910Y-93577370D01*
X151127093Y-93645094D01*
X151109912Y-93703608D01*
X151097968Y-93723804D01*
X151055496Y-93870000D01*
X151361648Y-93870000D01*
X151424766Y-93887267D01*
X151433605Y-93892494D01*
X151433608Y-93892494D01*
X151433610Y-93892496D01*
X151589002Y-93937642D01*
X151589005Y-93937642D01*
X151589007Y-93937643D01*
X151625310Y-93940500D01*
X151625318Y-93940500D01*
X152094682Y-93940500D01*
X152094690Y-93940500D01*
X152130993Y-93937643D01*
X152130995Y-93937642D01*
X152130997Y-93937642D01*
X152286389Y-93892496D01*
X152286389Y-93892495D01*
X152286395Y-93892494D01*
X152295233Y-93887267D01*
X152358352Y-93870000D01*
X152664505Y-93870000D01*
X152689246Y-93837048D01*
X152745240Y-93795256D01*
X152788407Y-93787500D01*
X153011804Y-93787500D01*
X153011805Y-93787499D01*
X153133035Y-93763386D01*
X153219025Y-93727767D01*
X153247233Y-93716083D01*
X153267311Y-93702666D01*
X153333987Y-93681787D01*
X153401368Y-93700270D01*
X153411691Y-93707392D01*
X153511321Y-93783842D01*
X153648158Y-93840521D01*
X153758122Y-93854999D01*
X153758137Y-93855000D01*
X154020000Y-93855000D01*
X154020000Y-93481500D01*
X154039685Y-93414461D01*
X154092489Y-93368706D01*
X154144000Y-93357500D01*
X154146000Y-93357500D01*
X154213039Y-93377185D01*
X154258794Y-93429989D01*
X154270000Y-93481500D01*
X154270000Y-93855000D01*
X154333000Y-93855000D01*
X154400039Y-93874685D01*
X154445794Y-93927489D01*
X154457000Y-93979000D01*
X154457000Y-94083431D01*
X154455406Y-94099621D01*
X154455597Y-94099640D01*
X154455000Y-94105701D01*
X154455000Y-94796219D01*
X154435315Y-94863258D01*
X154418681Y-94883900D01*
X153974992Y-95327589D01*
X153931289Y-95371292D01*
X153887586Y-95414994D01*
X153887585Y-95414996D01*
X153818233Y-95518789D01*
X153816586Y-95523393D01*
X153771614Y-95631964D01*
X153771612Y-95631972D01*
X153752717Y-95726966D01*
X153747500Y-95753192D01*
X153747500Y-96583454D01*
X153727815Y-96650493D01*
X153675011Y-96696248D01*
X153605853Y-96706192D01*
X153576048Y-96698015D01*
X153402255Y-96626028D01*
X153402243Y-96626025D01*
X153218620Y-96589500D01*
X153218616Y-96589500D01*
X153031384Y-96589500D01*
X153031379Y-96589500D01*
X152847756Y-96626025D01*
X152847748Y-96626027D01*
X152674771Y-96697676D01*
X152674757Y-96697684D01*
X152568440Y-96768723D01*
X152501763Y-96789601D01*
X152434383Y-96771116D01*
X152430660Y-96768723D01*
X152325005Y-96698127D01*
X152324991Y-96698119D01*
X152152103Y-96626507D01*
X152152100Y-96626506D01*
X152125000Y-96621115D01*
X152125000Y-97623011D01*
X152115060Y-97605795D01*
X152059205Y-97549940D01*
X151990796Y-97510444D01*
X151914496Y-97490000D01*
X151835504Y-97490000D01*
X151759204Y-97510444D01*
X151690795Y-97549940D01*
X151634940Y-97605795D01*
X151595444Y-97674204D01*
X151575000Y-97750504D01*
X151575000Y-97829496D01*
X151595444Y-97905796D01*
X151634940Y-97974205D01*
X151690795Y-98030060D01*
X151759204Y-98069556D01*
X151835504Y-98090000D01*
X151914496Y-98090000D01*
X151990796Y-98069556D01*
X152059205Y-98030060D01*
X152115060Y-97974205D01*
X152125000Y-97956988D01*
X152125000Y-98958881D01*
X152152103Y-98953491D01*
X152152110Y-98953489D01*
X152324987Y-98881882D01*
X152324996Y-98881877D01*
X152374072Y-98849085D01*
X152440749Y-98828206D01*
X152508130Y-98846689D01*
X152554821Y-98898667D01*
X152557526Y-98904733D01*
X152568915Y-98932230D01*
X152568917Y-98932233D01*
X152601067Y-98980349D01*
X152601067Y-98980350D01*
X152637585Y-99035003D01*
X152637591Y-99035011D01*
X153052589Y-99450008D01*
X153139992Y-99537411D01*
X153139994Y-99537413D01*
X153139996Y-99537414D01*
X153242756Y-99606076D01*
X153242758Y-99606077D01*
X153242767Y-99606083D01*
X153267772Y-99616440D01*
X153290071Y-99625677D01*
X153332254Y-99643149D01*
X153356966Y-99653386D01*
X153478192Y-99677499D01*
X153478196Y-99677500D01*
X153478197Y-99677500D01*
X161201804Y-99677500D01*
X161201805Y-99677499D01*
X161323035Y-99653386D01*
X161403784Y-99619937D01*
X161437233Y-99606083D01*
X161540008Y-99537411D01*
X161627411Y-99450008D01*
X162047411Y-99030008D01*
X162080592Y-98980349D01*
X162116083Y-98927233D01*
X162141047Y-98866965D01*
X162163386Y-98813034D01*
X162187500Y-98691803D01*
X162187500Y-98568197D01*
X162187500Y-95701671D01*
X162206507Y-95635698D01*
X162208854Y-95631964D01*
X162280608Y-95517768D01*
X162285788Y-95509524D01*
X162318865Y-95414996D01*
X162345368Y-95339255D01*
X162345369Y-95339249D01*
X162365565Y-95160003D01*
X162365565Y-95159996D01*
X162345369Y-94980750D01*
X162345368Y-94980745D01*
X162311480Y-94883900D01*
X162285789Y-94810478D01*
X162276829Y-94796219D01*
X162189815Y-94657737D01*
X162062262Y-94530184D01*
X161909523Y-94434211D01*
X161739254Y-94374631D01*
X161739249Y-94374630D01*
X161560004Y-94354435D01*
X161559996Y-94354435D01*
X161390383Y-94373545D01*
X161321561Y-94361490D01*
X161270182Y-94314141D01*
X161252500Y-94250325D01*
X161252500Y-93984499D01*
X161272185Y-93917460D01*
X161324989Y-93871705D01*
X161376500Y-93860499D01*
X161652871Y-93860499D01*
X161652872Y-93860499D01*
X161712483Y-93854091D01*
X161847331Y-93803796D01*
X161962546Y-93717546D01*
X162048796Y-93602331D01*
X162080402Y-93517591D01*
X162122273Y-93461657D01*
X162149131Y-93446363D01*
X162208872Y-93421617D01*
X162208871Y-93421617D01*
X162208877Y-93421615D01*
X162222233Y-93416083D01*
X162325008Y-93347411D01*
X162412411Y-93260008D01*
X162992411Y-92680008D01*
X163013025Y-92649157D01*
X163061083Y-92577233D01*
X163104243Y-92473035D01*
X163108386Y-92463034D01*
X163132500Y-92341803D01*
X163132500Y-92337157D01*
X163152185Y-92270118D01*
X163204989Y-92224363D01*
X163274147Y-92214419D01*
X163291088Y-92218079D01*
X163324007Y-92227643D01*
X163360310Y-92230500D01*
X163360318Y-92230500D01*
X163769682Y-92230500D01*
X163769690Y-92230500D01*
X163805993Y-92227643D01*
X163805995Y-92227642D01*
X163805997Y-92227642D01*
X163851510Y-92214419D01*
X163961395Y-92182494D01*
X163982369Y-92170089D01*
X164050088Y-92152906D01*
X164108613Y-92170090D01*
X164128803Y-92182031D01*
X164275000Y-92224504D01*
X164275000Y-91918352D01*
X164292267Y-91855233D01*
X164297494Y-91846395D01*
X164302419Y-91829445D01*
X164342642Y-91690997D01*
X164342643Y-91690991D01*
X164345499Y-91654697D01*
X164345500Y-91654690D01*
X164345500Y-91185310D01*
X164342643Y-91149007D01*
X164297494Y-90993605D01*
X164282266Y-90967857D01*
X164265000Y-90904738D01*
X164265000Y-90888352D01*
X164282269Y-90825229D01*
X164287494Y-90816395D01*
X164332643Y-90660993D01*
X164335500Y-90624690D01*
X164335500Y-90155310D01*
X164332643Y-90119007D01*
X164319131Y-90072500D01*
X164287495Y-89963608D01*
X164287492Y-89963600D01*
X164282266Y-89954763D01*
X164265000Y-89891645D01*
X164265000Y-89585494D01*
X164264998Y-89585493D01*
X164118809Y-89627965D01*
X164118806Y-89627967D01*
X164098608Y-89639912D01*
X164030884Y-89657092D01*
X163972370Y-89639910D01*
X163951397Y-89627507D01*
X163951390Y-89627504D01*
X163795997Y-89582357D01*
X163795991Y-89582356D01*
X163759697Y-89579500D01*
X163759690Y-89579500D01*
X163350310Y-89579500D01*
X163350302Y-89579500D01*
X163314008Y-89582356D01*
X163314002Y-89582357D01*
X163158609Y-89627504D01*
X163158608Y-89627504D01*
X163081117Y-89673332D01*
X163013393Y-89690514D01*
X162954878Y-89673331D01*
X162944393Y-89667131D01*
X162944389Y-89667130D01*
X162944388Y-89667129D01*
X162790208Y-89622335D01*
X162790202Y-89622334D01*
X162754181Y-89619500D01*
X162255830Y-89619500D01*
X162255808Y-89619501D01*
X162219796Y-89622335D01*
X162219792Y-89622335D01*
X162164631Y-89638360D01*
X162094762Y-89638159D01*
X162036093Y-89600215D01*
X162030773Y-89593594D01*
X162027176Y-89588789D01*
X161962546Y-89502454D01*
X161939709Y-89485358D01*
X161847335Y-89416206D01*
X161847328Y-89416202D01*
X161712482Y-89365908D01*
X161712483Y-89365908D01*
X161652883Y-89359501D01*
X161652881Y-89359500D01*
X161652873Y-89359500D01*
X161652865Y-89359500D01*
X160732645Y-89359500D01*
X160665606Y-89339815D01*
X160619851Y-89287011D01*
X160609907Y-89217853D01*
X160613568Y-89200906D01*
X160654504Y-89060000D01*
X159080000Y-89060000D01*
X159080000Y-89588789D01*
X159100913Y-89587144D01*
X159168567Y-89567490D01*
X159238437Y-89567689D01*
X159297107Y-89605631D01*
X159325950Y-89669270D01*
X159319345Y-89729896D01*
X159310908Y-89752515D01*
X159310908Y-89752516D01*
X159304501Y-89812116D01*
X159304500Y-89812127D01*
X159304500Y-90155317D01*
X159304501Y-90478500D01*
X159284817Y-90545539D01*
X159232013Y-90591294D01*
X159180501Y-90602500D01*
X157959281Y-90602500D01*
X157892242Y-90582815D01*
X157846487Y-90530011D01*
X157836543Y-90460853D01*
X157865568Y-90397297D01*
X157871593Y-90390825D01*
X158027411Y-90235008D01*
X158096083Y-90132233D01*
X158120825Y-90072500D01*
X158127946Y-90055310D01*
X158134288Y-90039999D01*
X158143386Y-90018034D01*
X158167500Y-89896803D01*
X158167500Y-89773197D01*
X158167500Y-89681282D01*
X158187185Y-89614243D01*
X158203818Y-89593602D01*
X158223622Y-89573796D01*
X158242530Y-89554889D01*
X158303851Y-89521404D01*
X158373543Y-89526388D01*
X158393335Y-89535840D01*
X158403803Y-89542031D01*
X158559089Y-89587145D01*
X158580000Y-89588789D01*
X158580000Y-88754500D01*
X158599685Y-88687461D01*
X158652489Y-88641706D01*
X158704000Y-88630500D01*
X159064682Y-88630500D01*
X159064690Y-88630500D01*
X159100993Y-88627643D01*
X159163703Y-88609423D01*
X159198298Y-88604500D01*
X159481702Y-88604500D01*
X159516296Y-88609423D01*
X159579007Y-88627643D01*
X159615310Y-88630500D01*
X159615318Y-88630500D01*
X160084682Y-88630500D01*
X160084690Y-88630500D01*
X160120993Y-88627643D01*
X160120995Y-88627642D01*
X160120997Y-88627642D01*
X160276389Y-88582496D01*
X160276389Y-88582495D01*
X160276395Y-88582494D01*
X160285233Y-88577267D01*
X160348352Y-88560000D01*
X160654504Y-88560000D01*
X160612031Y-88413803D01*
X160600090Y-88393613D01*
X160582906Y-88325889D01*
X160600089Y-88267369D01*
X160612494Y-88246395D01*
X160657643Y-88090993D01*
X160660500Y-88054690D01*
X160660500Y-87645310D01*
X160657643Y-87609007D01*
X160632073Y-87520997D01*
X160612495Y-87453609D01*
X160612494Y-87453606D01*
X160612494Y-87453605D01*
X160530117Y-87314313D01*
X160530115Y-87314311D01*
X160530112Y-87314307D01*
X160415692Y-87199887D01*
X160415684Y-87199881D01*
X160276393Y-87117505D01*
X160276390Y-87117504D01*
X160120997Y-87072357D01*
X160120991Y-87072356D01*
X160084697Y-87069500D01*
X160084690Y-87069500D01*
X159615310Y-87069500D01*
X159615302Y-87069500D01*
X159579008Y-87072356D01*
X159579005Y-87072357D01*
X159531424Y-87086181D01*
X159516296Y-87090576D01*
X159481702Y-87095500D01*
X159198298Y-87095500D01*
X159163703Y-87090576D01*
X159139328Y-87083494D01*
X159100994Y-87072357D01*
X159100991Y-87072356D01*
X159064697Y-87069500D01*
X159064690Y-87069500D01*
X158595310Y-87069500D01*
X158595302Y-87069500D01*
X158559008Y-87072356D01*
X158559002Y-87072357D01*
X158461877Y-87100576D01*
X158427282Y-87105500D01*
X158265294Y-87105500D01*
X158209463Y-87090225D01*
X158209056Y-87091167D01*
X158202444Y-87088305D01*
X158202171Y-87088231D01*
X158201896Y-87088068D01*
X158201892Y-87088067D01*
X158044679Y-87042391D01*
X158044673Y-87042390D01*
X158007947Y-87039500D01*
X158007940Y-87039500D01*
X157582060Y-87039500D01*
X157582052Y-87039500D01*
X157545326Y-87042390D01*
X157545320Y-87042391D01*
X157388105Y-87088067D01*
X157373117Y-87096931D01*
X157305392Y-87114110D01*
X157246883Y-87096931D01*
X157231894Y-87088067D01*
X157074679Y-87042391D01*
X157074673Y-87042390D01*
X157037947Y-87039500D01*
X157037940Y-87039500D01*
X156612060Y-87039500D01*
X156612052Y-87039500D01*
X156575326Y-87042390D01*
X156575320Y-87042391D01*
X156418103Y-87088068D01*
X156384663Y-87107844D01*
X156316939Y-87125025D01*
X156258422Y-87107842D01*
X156247135Y-87101167D01*
X156241897Y-87098069D01*
X156241892Y-87098066D01*
X156084679Y-87052391D01*
X156084673Y-87052390D01*
X156047947Y-87049500D01*
X156047940Y-87049500D01*
X155622060Y-87049500D01*
X155622052Y-87049500D01*
X155585326Y-87052390D01*
X155585320Y-87052391D01*
X155428105Y-87098067D01*
X155413117Y-87106931D01*
X155345392Y-87124110D01*
X155286883Y-87106931D01*
X155271894Y-87098067D01*
X155114679Y-87052391D01*
X155114673Y-87052390D01*
X155077947Y-87049500D01*
X155077940Y-87049500D01*
X154652060Y-87049500D01*
X154652052Y-87049500D01*
X154615326Y-87052390D01*
X154615320Y-87052391D01*
X154458107Y-87098067D01*
X154458103Y-87098068D01*
X154457829Y-87098231D01*
X154457555Y-87098305D01*
X154450944Y-87101167D01*
X154450536Y-87100225D01*
X154394706Y-87115500D01*
X154360548Y-87115500D01*
X154324373Y-87108008D01*
X154323887Y-87109682D01*
X154160997Y-87062357D01*
X154160991Y-87062356D01*
X154124697Y-87059500D01*
X154124690Y-87059500D01*
X153864500Y-87059500D01*
X153797461Y-87039815D01*
X153751706Y-86987011D01*
X153740500Y-86935500D01*
X153740500Y-86645317D01*
X153740499Y-86645302D01*
X153739295Y-86630000D01*
X154170000Y-86630000D01*
X154698790Y-86630000D01*
X154697145Y-86609089D01*
X154652031Y-86453803D01*
X154642758Y-86438124D01*
X154625573Y-86370401D01*
X154642758Y-86311876D01*
X154652030Y-86296197D01*
X154697145Y-86140910D01*
X154698790Y-86120000D01*
X154170000Y-86120000D01*
X154170000Y-86630000D01*
X153739295Y-86630000D01*
X153737643Y-86609008D01*
X153737642Y-86609002D01*
X153692495Y-86453608D01*
X153692492Y-86453600D01*
X153687266Y-86444763D01*
X153670000Y-86381645D01*
X153670000Y-86368352D01*
X153687267Y-86305233D01*
X153692494Y-86296395D01*
X153737643Y-86140993D01*
X153740500Y-86104690D01*
X153740500Y-85744000D01*
X153760185Y-85676961D01*
X153812989Y-85631206D01*
X153864500Y-85620000D01*
X154698790Y-85620000D01*
X154697145Y-85599089D01*
X154652031Y-85443804D01*
X154569721Y-85304625D01*
X154569714Y-85304616D01*
X154455383Y-85190285D01*
X154455374Y-85190278D01*
X154405414Y-85160732D01*
X154357730Y-85109663D01*
X154345227Y-85040921D01*
X154371873Y-84976332D01*
X154429208Y-84936402D01*
X154468535Y-84930000D01*
X164615500Y-84930000D01*
X164682539Y-84949685D01*
G37*
%TD.AperFunction*%
%TD*%
M02*
