%TF.GenerationSoftware,KiCad,Pcbnew,8.0.5*%
%TF.CreationDate,2024-10-24T22:42:25-04:00*%
%TF.ProjectId,NRF24L01 2.4GHZ,4e524632-344c-4303-9120-322e3447485a,rev?*%
%TF.SameCoordinates,Original*%
%TF.FileFunction,Legend,Top*%
%TF.FilePolarity,Positive*%
%FSLAX46Y46*%
G04 Gerber Fmt 4.6, Leading zero omitted, Abs format (unit mm)*
G04 Created by KiCad (PCBNEW 8.0.5) date 2024-10-24 22:42:25*
%MOMM*%
%LPD*%
G01*
G04 APERTURE LIST*
%ADD10C,0.152400*%
%ADD11C,0.127000*%
G04 APERTURE END LIST*
D10*
X150057500Y-85575000D02*
X149202500Y-85565000D01*
X149860000Y-85380000D02*
X149870000Y-84525000D01*
X156545000Y-92220000D02*
X156540000Y-91450000D01*
X154115000Y-91700000D02*
X155565000Y-91700000D01*
X155590000Y-91555000D02*
X155590000Y-90105000D01*
X156560000Y-92340000D02*
X158010000Y-92340000D01*
X154135000Y-93240000D02*
X155585000Y-93240000D01*
X155585000Y-93240000D02*
X155590000Y-92620000D01*
D11*
X149786451Y-87950025D02*
X149759237Y-87974216D01*
X149759237Y-87974216D02*
X149683642Y-87998406D01*
X149683642Y-87998406D02*
X149635261Y-87998406D01*
X149635261Y-87998406D02*
X149565713Y-87974216D01*
X149565713Y-87974216D02*
X149523380Y-87925835D01*
X149523380Y-87925835D02*
X149505237Y-87877454D01*
X149505237Y-87877454D02*
X149493142Y-87780692D01*
X149493142Y-87780692D02*
X149502213Y-87708120D01*
X149502213Y-87708120D02*
X149538499Y-87611358D01*
X149538499Y-87611358D02*
X149568737Y-87562977D01*
X149568737Y-87562977D02*
X149623166Y-87514596D01*
X149623166Y-87514596D02*
X149698761Y-87490406D01*
X149698761Y-87490406D02*
X149747142Y-87490406D01*
X149747142Y-87490406D02*
X149816690Y-87514596D01*
X149816690Y-87514596D02*
X149837856Y-87538787D01*
X150264213Y-87998406D02*
X149973928Y-87998406D01*
X150119070Y-87998406D02*
X150182570Y-87490406D01*
X150182570Y-87490406D02*
X150125118Y-87562977D01*
X150125118Y-87562977D02*
X150070690Y-87611358D01*
X150070690Y-87611358D02*
X150019285Y-87635549D01*
X150642190Y-87490406D02*
X150690571Y-87490406D01*
X150690571Y-87490406D02*
X150735928Y-87514596D01*
X150735928Y-87514596D02*
X150757095Y-87538787D01*
X150757095Y-87538787D02*
X150775238Y-87587168D01*
X150775238Y-87587168D02*
X150787333Y-87683930D01*
X150787333Y-87683930D02*
X150772214Y-87804882D01*
X150772214Y-87804882D02*
X150735928Y-87901644D01*
X150735928Y-87901644D02*
X150705690Y-87950025D01*
X150705690Y-87950025D02*
X150678476Y-87974216D01*
X150678476Y-87974216D02*
X150627071Y-87998406D01*
X150627071Y-87998406D02*
X150578690Y-87998406D01*
X150578690Y-87998406D02*
X150533333Y-87974216D01*
X150533333Y-87974216D02*
X150512166Y-87950025D01*
X150512166Y-87950025D02*
X150494023Y-87901644D01*
X150494023Y-87901644D02*
X150481928Y-87804882D01*
X150481928Y-87804882D02*
X150497047Y-87683930D01*
X150497047Y-87683930D02*
X150533333Y-87587168D01*
X150533333Y-87587168D02*
X150563571Y-87538787D01*
X150563571Y-87538787D02*
X150590785Y-87514596D01*
X150590785Y-87514596D02*
X150642190Y-87490406D01*
X163958356Y-92680025D02*
X163931142Y-92704216D01*
X163931142Y-92704216D02*
X163855547Y-92728406D01*
X163855547Y-92728406D02*
X163807166Y-92728406D01*
X163807166Y-92728406D02*
X163737618Y-92704216D01*
X163737618Y-92704216D02*
X163695285Y-92655835D01*
X163695285Y-92655835D02*
X163677142Y-92607454D01*
X163677142Y-92607454D02*
X163665047Y-92510692D01*
X163665047Y-92510692D02*
X163674118Y-92438120D01*
X163674118Y-92438120D02*
X163710404Y-92341358D01*
X163710404Y-92341358D02*
X163740642Y-92292977D01*
X163740642Y-92292977D02*
X163795071Y-92244596D01*
X163795071Y-92244596D02*
X163870666Y-92220406D01*
X163870666Y-92220406D02*
X163919047Y-92220406D01*
X163919047Y-92220406D02*
X163988595Y-92244596D01*
X163988595Y-92244596D02*
X164009761Y-92268787D01*
X164436118Y-92728406D02*
X164145833Y-92728406D01*
X164290975Y-92728406D02*
X164354475Y-92220406D01*
X164354475Y-92220406D02*
X164297023Y-92292977D01*
X164297023Y-92292977D02*
X164242595Y-92341358D01*
X164242595Y-92341358D02*
X164191190Y-92365549D01*
X154738356Y-86510025D02*
X154711142Y-86534216D01*
X154711142Y-86534216D02*
X154635547Y-86558406D01*
X154635547Y-86558406D02*
X154587166Y-86558406D01*
X154587166Y-86558406D02*
X154517618Y-86534216D01*
X154517618Y-86534216D02*
X154475285Y-86485835D01*
X154475285Y-86485835D02*
X154457142Y-86437454D01*
X154457142Y-86437454D02*
X154445047Y-86340692D01*
X154445047Y-86340692D02*
X154454118Y-86268120D01*
X154454118Y-86268120D02*
X154490404Y-86171358D01*
X154490404Y-86171358D02*
X154520642Y-86122977D01*
X154520642Y-86122977D02*
X154575071Y-86074596D01*
X154575071Y-86074596D02*
X154650666Y-86050406D01*
X154650666Y-86050406D02*
X154699047Y-86050406D01*
X154699047Y-86050406D02*
X154768595Y-86074596D01*
X154768595Y-86074596D02*
X154789761Y-86098787D01*
X155231237Y-86050406D02*
X155134475Y-86050406D01*
X155134475Y-86050406D02*
X155083071Y-86074596D01*
X155083071Y-86074596D02*
X155055856Y-86098787D01*
X155055856Y-86098787D02*
X154998404Y-86171358D01*
X154998404Y-86171358D02*
X154962118Y-86268120D01*
X154962118Y-86268120D02*
X154937928Y-86461644D01*
X154937928Y-86461644D02*
X154956071Y-86510025D01*
X154956071Y-86510025D02*
X154977237Y-86534216D01*
X154977237Y-86534216D02*
X155022595Y-86558406D01*
X155022595Y-86558406D02*
X155119356Y-86558406D01*
X155119356Y-86558406D02*
X155170761Y-86534216D01*
X155170761Y-86534216D02*
X155197975Y-86510025D01*
X155197975Y-86510025D02*
X155228214Y-86461644D01*
X155228214Y-86461644D02*
X155243333Y-86340692D01*
X155243333Y-86340692D02*
X155225190Y-86292311D01*
X155225190Y-86292311D02*
X155204023Y-86268120D01*
X155204023Y-86268120D02*
X155158666Y-86243930D01*
X155158666Y-86243930D02*
X155061904Y-86243930D01*
X155061904Y-86243930D02*
X155010499Y-86268120D01*
X155010499Y-86268120D02*
X154983285Y-86292311D01*
X154983285Y-86292311D02*
X154953047Y-86340692D01*
X155773428Y-95150406D02*
X155722023Y-95561644D01*
X155722023Y-95561644D02*
X155740166Y-95610025D01*
X155740166Y-95610025D02*
X155761333Y-95634216D01*
X155761333Y-95634216D02*
X155806690Y-95658406D01*
X155806690Y-95658406D02*
X155903452Y-95658406D01*
X155903452Y-95658406D02*
X155954857Y-95634216D01*
X155954857Y-95634216D02*
X155982071Y-95610025D01*
X155982071Y-95610025D02*
X156012309Y-95561644D01*
X156012309Y-95561644D02*
X156063714Y-95150406D01*
X156508213Y-95658406D02*
X156217928Y-95658406D01*
X156363070Y-95658406D02*
X156426570Y-95150406D01*
X156426570Y-95150406D02*
X156369118Y-95222977D01*
X156369118Y-95222977D02*
X156314690Y-95271358D01*
X156314690Y-95271358D02*
X156263285Y-95295549D01*
X150078356Y-89420025D02*
X150051142Y-89444216D01*
X150051142Y-89444216D02*
X149975547Y-89468406D01*
X149975547Y-89468406D02*
X149927166Y-89468406D01*
X149927166Y-89468406D02*
X149857618Y-89444216D01*
X149857618Y-89444216D02*
X149815285Y-89395835D01*
X149815285Y-89395835D02*
X149797142Y-89347454D01*
X149797142Y-89347454D02*
X149785047Y-89250692D01*
X149785047Y-89250692D02*
X149794118Y-89178120D01*
X149794118Y-89178120D02*
X149830404Y-89081358D01*
X149830404Y-89081358D02*
X149860642Y-89032977D01*
X149860642Y-89032977D02*
X149915071Y-88984596D01*
X149915071Y-88984596D02*
X149990666Y-88960406D01*
X149990666Y-88960406D02*
X150039047Y-88960406D01*
X150039047Y-88960406D02*
X150108595Y-88984596D01*
X150108595Y-88984596D02*
X150129761Y-89008787D01*
X150314214Y-89468406D02*
X150410975Y-89468406D01*
X150410975Y-89468406D02*
X150462380Y-89444216D01*
X150462380Y-89444216D02*
X150489595Y-89420025D01*
X150489595Y-89420025D02*
X150547047Y-89347454D01*
X150547047Y-89347454D02*
X150583333Y-89250692D01*
X150583333Y-89250692D02*
X150607523Y-89057168D01*
X150607523Y-89057168D02*
X150589380Y-89008787D01*
X150589380Y-89008787D02*
X150568214Y-88984596D01*
X150568214Y-88984596D02*
X150522856Y-88960406D01*
X150522856Y-88960406D02*
X150426095Y-88960406D01*
X150426095Y-88960406D02*
X150374690Y-88984596D01*
X150374690Y-88984596D02*
X150347475Y-89008787D01*
X150347475Y-89008787D02*
X150317237Y-89057168D01*
X150317237Y-89057168D02*
X150302118Y-89178120D01*
X150302118Y-89178120D02*
X150320261Y-89226501D01*
X150320261Y-89226501D02*
X150341428Y-89250692D01*
X150341428Y-89250692D02*
X150386785Y-89274882D01*
X150386785Y-89274882D02*
X150483547Y-89274882D01*
X150483547Y-89274882D02*
X150534952Y-89250692D01*
X150534952Y-89250692D02*
X150562166Y-89226501D01*
X150562166Y-89226501D02*
X150592404Y-89178120D01*
X158738356Y-87140025D02*
X158711142Y-87164216D01*
X158711142Y-87164216D02*
X158635547Y-87188406D01*
X158635547Y-87188406D02*
X158587166Y-87188406D01*
X158587166Y-87188406D02*
X158517618Y-87164216D01*
X158517618Y-87164216D02*
X158475285Y-87115835D01*
X158475285Y-87115835D02*
X158457142Y-87067454D01*
X158457142Y-87067454D02*
X158445047Y-86970692D01*
X158445047Y-86970692D02*
X158454118Y-86898120D01*
X158454118Y-86898120D02*
X158490404Y-86801358D01*
X158490404Y-86801358D02*
X158520642Y-86752977D01*
X158520642Y-86752977D02*
X158575071Y-86704596D01*
X158575071Y-86704596D02*
X158650666Y-86680406D01*
X158650666Y-86680406D02*
X158699047Y-86680406D01*
X158699047Y-86680406D02*
X158768595Y-86704596D01*
X158768595Y-86704596D02*
X158789761Y-86728787D01*
X159210071Y-86849739D02*
X159167737Y-87188406D01*
X159113309Y-86656216D02*
X158946999Y-87019073D01*
X158946999Y-87019073D02*
X159261475Y-87019073D01*
X150052309Y-91988406D02*
X149913214Y-91746501D01*
X149762023Y-91988406D02*
X149825523Y-91480406D01*
X149825523Y-91480406D02*
X150019047Y-91480406D01*
X150019047Y-91480406D02*
X150064404Y-91504596D01*
X150064404Y-91504596D02*
X150085571Y-91528787D01*
X150085571Y-91528787D02*
X150103714Y-91577168D01*
X150103714Y-91577168D02*
X150094642Y-91649739D01*
X150094642Y-91649739D02*
X150064404Y-91698120D01*
X150064404Y-91698120D02*
X150037190Y-91722311D01*
X150037190Y-91722311D02*
X149985785Y-91746501D01*
X149985785Y-91746501D02*
X149792261Y-91746501D01*
X150303285Y-91528787D02*
X150330499Y-91504596D01*
X150330499Y-91504596D02*
X150381904Y-91480406D01*
X150381904Y-91480406D02*
X150502856Y-91480406D01*
X150502856Y-91480406D02*
X150548214Y-91504596D01*
X150548214Y-91504596D02*
X150569380Y-91528787D01*
X150569380Y-91528787D02*
X150587523Y-91577168D01*
X150587523Y-91577168D02*
X150581475Y-91625549D01*
X150581475Y-91625549D02*
X150548214Y-91698120D01*
X150548214Y-91698120D02*
X150221642Y-91988406D01*
X150221642Y-91988406D02*
X150536118Y-91988406D01*
X155712309Y-87188406D02*
X155470404Y-87188406D01*
X155470404Y-87188406D02*
X155533904Y-86680406D01*
X155896761Y-86680406D02*
X156211237Y-86680406D01*
X156211237Y-86680406D02*
X156017714Y-86873930D01*
X156017714Y-86873930D02*
X156090285Y-86873930D01*
X156090285Y-86873930D02*
X156135642Y-86898120D01*
X156135642Y-86898120D02*
X156156809Y-86922311D01*
X156156809Y-86922311D02*
X156174952Y-86970692D01*
X156174952Y-86970692D02*
X156159833Y-87091644D01*
X156159833Y-87091644D02*
X156129594Y-87140025D01*
X156129594Y-87140025D02*
X156102380Y-87164216D01*
X156102380Y-87164216D02*
X156050975Y-87188406D01*
X156050975Y-87188406D02*
X155905833Y-87188406D01*
X155905833Y-87188406D02*
X155860475Y-87164216D01*
X155860475Y-87164216D02*
X155839309Y-87140025D01*
X154756451Y-85420025D02*
X154729237Y-85444216D01*
X154729237Y-85444216D02*
X154653642Y-85468406D01*
X154653642Y-85468406D02*
X154605261Y-85468406D01*
X154605261Y-85468406D02*
X154535713Y-85444216D01*
X154535713Y-85444216D02*
X154493380Y-85395835D01*
X154493380Y-85395835D02*
X154475237Y-85347454D01*
X154475237Y-85347454D02*
X154463142Y-85250692D01*
X154463142Y-85250692D02*
X154472213Y-85178120D01*
X154472213Y-85178120D02*
X154508499Y-85081358D01*
X154508499Y-85081358D02*
X154538737Y-85032977D01*
X154538737Y-85032977D02*
X154593166Y-84984596D01*
X154593166Y-84984596D02*
X154668761Y-84960406D01*
X154668761Y-84960406D02*
X154717142Y-84960406D01*
X154717142Y-84960406D02*
X154786690Y-84984596D01*
X154786690Y-84984596D02*
X154807856Y-85008787D01*
X155234213Y-85468406D02*
X154943928Y-85468406D01*
X155089070Y-85468406D02*
X155152570Y-84960406D01*
X155152570Y-84960406D02*
X155095118Y-85032977D01*
X155095118Y-85032977D02*
X155040690Y-85081358D01*
X155040690Y-85081358D02*
X154989285Y-85105549D01*
X155718023Y-85468406D02*
X155427738Y-85468406D01*
X155572880Y-85468406D02*
X155636380Y-84960406D01*
X155636380Y-84960406D02*
X155578928Y-85032977D01*
X155578928Y-85032977D02*
X155524500Y-85081358D01*
X155524500Y-85081358D02*
X155473095Y-85105549D01*
X162402309Y-89568406D02*
X162263214Y-89326501D01*
X162112023Y-89568406D02*
X162175523Y-89060406D01*
X162175523Y-89060406D02*
X162369047Y-89060406D01*
X162369047Y-89060406D02*
X162414404Y-89084596D01*
X162414404Y-89084596D02*
X162435571Y-89108787D01*
X162435571Y-89108787D02*
X162453714Y-89157168D01*
X162453714Y-89157168D02*
X162444642Y-89229739D01*
X162444642Y-89229739D02*
X162414404Y-89278120D01*
X162414404Y-89278120D02*
X162387190Y-89302311D01*
X162387190Y-89302311D02*
X162335785Y-89326501D01*
X162335785Y-89326501D02*
X162142261Y-89326501D01*
X162886118Y-89568406D02*
X162595833Y-89568406D01*
X162740975Y-89568406D02*
X162804475Y-89060406D01*
X162804475Y-89060406D02*
X162747023Y-89132977D01*
X162747023Y-89132977D02*
X162692595Y-89181358D01*
X162692595Y-89181358D02*
X162641190Y-89205549D01*
X155942451Y-78258263D02*
X156184356Y-78258263D01*
X155875928Y-78403406D02*
X156108761Y-77895406D01*
X156108761Y-77895406D02*
X156214594Y-78403406D01*
X156417190Y-78137311D02*
X156586523Y-78137311D01*
X156625833Y-78403406D02*
X156383928Y-78403406D01*
X156383928Y-78403406D02*
X156447428Y-77895406D01*
X156447428Y-77895406D02*
X156689333Y-77895406D01*
X157109642Y-78403406D02*
X156819357Y-78403406D01*
X156964499Y-78403406D02*
X157027999Y-77895406D01*
X157027999Y-77895406D02*
X156970547Y-77967977D01*
X156970547Y-77967977D02*
X156916119Y-78016358D01*
X156916119Y-78016358D02*
X156864714Y-78040549D01*
X150198356Y-90470025D02*
X150171142Y-90494216D01*
X150171142Y-90494216D02*
X150095547Y-90518406D01*
X150095547Y-90518406D02*
X150047166Y-90518406D01*
X150047166Y-90518406D02*
X149977618Y-90494216D01*
X149977618Y-90494216D02*
X149935285Y-90445835D01*
X149935285Y-90445835D02*
X149917142Y-90397454D01*
X149917142Y-90397454D02*
X149905047Y-90300692D01*
X149905047Y-90300692D02*
X149914118Y-90228120D01*
X149914118Y-90228120D02*
X149950404Y-90131358D01*
X149950404Y-90131358D02*
X149980642Y-90082977D01*
X149980642Y-90082977D02*
X150035071Y-90034596D01*
X150035071Y-90034596D02*
X150110666Y-90010406D01*
X150110666Y-90010406D02*
X150159047Y-90010406D01*
X150159047Y-90010406D02*
X150228595Y-90034596D01*
X150228595Y-90034596D02*
X150249761Y-90058787D01*
X150518880Y-90228120D02*
X150473523Y-90203930D01*
X150473523Y-90203930D02*
X150452356Y-90179739D01*
X150452356Y-90179739D02*
X150434214Y-90131358D01*
X150434214Y-90131358D02*
X150437237Y-90107168D01*
X150437237Y-90107168D02*
X150467475Y-90058787D01*
X150467475Y-90058787D02*
X150494690Y-90034596D01*
X150494690Y-90034596D02*
X150546095Y-90010406D01*
X150546095Y-90010406D02*
X150642856Y-90010406D01*
X150642856Y-90010406D02*
X150688214Y-90034596D01*
X150688214Y-90034596D02*
X150709380Y-90058787D01*
X150709380Y-90058787D02*
X150727523Y-90107168D01*
X150727523Y-90107168D02*
X150724499Y-90131358D01*
X150724499Y-90131358D02*
X150694261Y-90179739D01*
X150694261Y-90179739D02*
X150667047Y-90203930D01*
X150667047Y-90203930D02*
X150615642Y-90228120D01*
X150615642Y-90228120D02*
X150518880Y-90228120D01*
X150518880Y-90228120D02*
X150467475Y-90252311D01*
X150467475Y-90252311D02*
X150440261Y-90276501D01*
X150440261Y-90276501D02*
X150410023Y-90324882D01*
X150410023Y-90324882D02*
X150397928Y-90421644D01*
X150397928Y-90421644D02*
X150416071Y-90470025D01*
X150416071Y-90470025D02*
X150437237Y-90494216D01*
X150437237Y-90494216D02*
X150482595Y-90518406D01*
X150482595Y-90518406D02*
X150579356Y-90518406D01*
X150579356Y-90518406D02*
X150630761Y-90494216D01*
X150630761Y-90494216D02*
X150657975Y-90470025D01*
X150657975Y-90470025D02*
X150688214Y-90421644D01*
X150688214Y-90421644D02*
X150700309Y-90324882D01*
X150700309Y-90324882D02*
X150682166Y-90276501D01*
X150682166Y-90276501D02*
X150660999Y-90252311D01*
X150660999Y-90252311D02*
X150615642Y-90228120D01*
X149882309Y-86388406D02*
X149640404Y-86388406D01*
X149640404Y-86388406D02*
X149703904Y-85880406D01*
X150311690Y-86049739D02*
X150269356Y-86388406D01*
X150214928Y-85856216D02*
X150048618Y-86219073D01*
X150048618Y-86219073D02*
X150363094Y-86219073D01*
X163918356Y-89420025D02*
X163891142Y-89444216D01*
X163891142Y-89444216D02*
X163815547Y-89468406D01*
X163815547Y-89468406D02*
X163767166Y-89468406D01*
X163767166Y-89468406D02*
X163697618Y-89444216D01*
X163697618Y-89444216D02*
X163655285Y-89395835D01*
X163655285Y-89395835D02*
X163637142Y-89347454D01*
X163637142Y-89347454D02*
X163625047Y-89250692D01*
X163625047Y-89250692D02*
X163634118Y-89178120D01*
X163634118Y-89178120D02*
X163670404Y-89081358D01*
X163670404Y-89081358D02*
X163700642Y-89032977D01*
X163700642Y-89032977D02*
X163755071Y-88984596D01*
X163755071Y-88984596D02*
X163830666Y-88960406D01*
X163830666Y-88960406D02*
X163879047Y-88960406D01*
X163879047Y-88960406D02*
X163948595Y-88984596D01*
X163948595Y-88984596D02*
X163969761Y-89008787D01*
X164163285Y-89008787D02*
X164190499Y-88984596D01*
X164190499Y-88984596D02*
X164241904Y-88960406D01*
X164241904Y-88960406D02*
X164362856Y-88960406D01*
X164362856Y-88960406D02*
X164408214Y-88984596D01*
X164408214Y-88984596D02*
X164429380Y-89008787D01*
X164429380Y-89008787D02*
X164447523Y-89057168D01*
X164447523Y-89057168D02*
X164441475Y-89105549D01*
X164441475Y-89105549D02*
X164408214Y-89178120D01*
X164408214Y-89178120D02*
X164081642Y-89468406D01*
X164081642Y-89468406D02*
X164396118Y-89468406D01*
X163191142Y-97520406D02*
X163145785Y-97883263D01*
X163145785Y-97883263D02*
X163112523Y-97955835D01*
X163112523Y-97955835D02*
X163058094Y-98004216D01*
X163058094Y-98004216D02*
X162982499Y-98028406D01*
X162982499Y-98028406D02*
X162934118Y-98028406D01*
X163635642Y-98028406D02*
X163345357Y-98028406D01*
X163490499Y-98028406D02*
X163553999Y-97520406D01*
X163553999Y-97520406D02*
X163496547Y-97592977D01*
X163496547Y-97592977D02*
X163442119Y-97641358D01*
X163442119Y-97641358D02*
X163390714Y-97665549D01*
X153658356Y-89110025D02*
X153631142Y-89134216D01*
X153631142Y-89134216D02*
X153555547Y-89158406D01*
X153555547Y-89158406D02*
X153507166Y-89158406D01*
X153507166Y-89158406D02*
X153437618Y-89134216D01*
X153437618Y-89134216D02*
X153395285Y-89085835D01*
X153395285Y-89085835D02*
X153377142Y-89037454D01*
X153377142Y-89037454D02*
X153365047Y-88940692D01*
X153365047Y-88940692D02*
X153374118Y-88868120D01*
X153374118Y-88868120D02*
X153410404Y-88771358D01*
X153410404Y-88771358D02*
X153440642Y-88722977D01*
X153440642Y-88722977D02*
X153495071Y-88674596D01*
X153495071Y-88674596D02*
X153570666Y-88650406D01*
X153570666Y-88650406D02*
X153619047Y-88650406D01*
X153619047Y-88650406D02*
X153688595Y-88674596D01*
X153688595Y-88674596D02*
X153709761Y-88698787D01*
X154175428Y-88650406D02*
X153933523Y-88650406D01*
X153933523Y-88650406D02*
X153879095Y-88892311D01*
X153879095Y-88892311D02*
X153906309Y-88868120D01*
X153906309Y-88868120D02*
X153957714Y-88843930D01*
X153957714Y-88843930D02*
X154078666Y-88843930D01*
X154078666Y-88843930D02*
X154124023Y-88868120D01*
X154124023Y-88868120D02*
X154145190Y-88892311D01*
X154145190Y-88892311D02*
X154163333Y-88940692D01*
X154163333Y-88940692D02*
X154148214Y-89061644D01*
X154148214Y-89061644D02*
X154117975Y-89110025D01*
X154117975Y-89110025D02*
X154090761Y-89134216D01*
X154090761Y-89134216D02*
X154039356Y-89158406D01*
X154039356Y-89158406D02*
X153918404Y-89158406D01*
X153918404Y-89158406D02*
X153873047Y-89134216D01*
X153873047Y-89134216D02*
X153851880Y-89110025D01*
X157872309Y-89138406D02*
X157630404Y-89138406D01*
X157630404Y-89138406D02*
X157693904Y-88630406D01*
X158307737Y-89138406D02*
X158017452Y-89138406D01*
X158162594Y-89138406D02*
X158226094Y-88630406D01*
X158226094Y-88630406D02*
X158168642Y-88702977D01*
X158168642Y-88702977D02*
X158114214Y-88751358D01*
X158114214Y-88751358D02*
X158062809Y-88775549D01*
X157242309Y-87238406D02*
X157000404Y-87238406D01*
X157000404Y-87238406D02*
X157063904Y-86730406D01*
X157444904Y-86778787D02*
X157472118Y-86754596D01*
X157472118Y-86754596D02*
X157523523Y-86730406D01*
X157523523Y-86730406D02*
X157644475Y-86730406D01*
X157644475Y-86730406D02*
X157689833Y-86754596D01*
X157689833Y-86754596D02*
X157710999Y-86778787D01*
X157710999Y-86778787D02*
X157729142Y-86827168D01*
X157729142Y-86827168D02*
X157723094Y-86875549D01*
X157723094Y-86875549D02*
X157689833Y-86948120D01*
X157689833Y-86948120D02*
X157363261Y-87238406D01*
X157363261Y-87238406D02*
X157677737Y-87238406D01*
X150098356Y-93830025D02*
X150071142Y-93854216D01*
X150071142Y-93854216D02*
X149995547Y-93878406D01*
X149995547Y-93878406D02*
X149947166Y-93878406D01*
X149947166Y-93878406D02*
X149877618Y-93854216D01*
X149877618Y-93854216D02*
X149835285Y-93805835D01*
X149835285Y-93805835D02*
X149817142Y-93757454D01*
X149817142Y-93757454D02*
X149805047Y-93660692D01*
X149805047Y-93660692D02*
X149814118Y-93588120D01*
X149814118Y-93588120D02*
X149850404Y-93491358D01*
X149850404Y-93491358D02*
X149880642Y-93442977D01*
X149880642Y-93442977D02*
X149935071Y-93394596D01*
X149935071Y-93394596D02*
X150010666Y-93370406D01*
X150010666Y-93370406D02*
X150059047Y-93370406D01*
X150059047Y-93370406D02*
X150128595Y-93394596D01*
X150128595Y-93394596D02*
X150149761Y-93418787D01*
X150325142Y-93370406D02*
X150663809Y-93370406D01*
X150663809Y-93370406D02*
X150382595Y-93878406D01*
X161015309Y-94256501D02*
X160985071Y-94498406D01*
X160879238Y-93990406D02*
X161015309Y-94256501D01*
X161015309Y-94256501D02*
X161217904Y-93990406D01*
X161589833Y-94498406D02*
X161299548Y-94498406D01*
X161444690Y-94498406D02*
X161508190Y-93990406D01*
X161508190Y-93990406D02*
X161450738Y-94062977D01*
X161450738Y-94062977D02*
X161396310Y-94111358D01*
X161396310Y-94111358D02*
X161344905Y-94135549D01*
X160758356Y-88520025D02*
X160731142Y-88544216D01*
X160731142Y-88544216D02*
X160655547Y-88568406D01*
X160655547Y-88568406D02*
X160607166Y-88568406D01*
X160607166Y-88568406D02*
X160537618Y-88544216D01*
X160537618Y-88544216D02*
X160495285Y-88495835D01*
X160495285Y-88495835D02*
X160477142Y-88447454D01*
X160477142Y-88447454D02*
X160465047Y-88350692D01*
X160465047Y-88350692D02*
X160474118Y-88278120D01*
X160474118Y-88278120D02*
X160510404Y-88181358D01*
X160510404Y-88181358D02*
X160540642Y-88132977D01*
X160540642Y-88132977D02*
X160595071Y-88084596D01*
X160595071Y-88084596D02*
X160670666Y-88060406D01*
X160670666Y-88060406D02*
X160719047Y-88060406D01*
X160719047Y-88060406D02*
X160788595Y-88084596D01*
X160788595Y-88084596D02*
X160809761Y-88108787D01*
X160985142Y-88060406D02*
X161299618Y-88060406D01*
X161299618Y-88060406D02*
X161106095Y-88253930D01*
X161106095Y-88253930D02*
X161178666Y-88253930D01*
X161178666Y-88253930D02*
X161224023Y-88278120D01*
X161224023Y-88278120D02*
X161245190Y-88302311D01*
X161245190Y-88302311D02*
X161263333Y-88350692D01*
X161263333Y-88350692D02*
X161248214Y-88471644D01*
X161248214Y-88471644D02*
X161217975Y-88520025D01*
X161217975Y-88520025D02*
X161190761Y-88544216D01*
X161190761Y-88544216D02*
X161139356Y-88568406D01*
X161139356Y-88568406D02*
X160994214Y-88568406D01*
X160994214Y-88568406D02*
X160948856Y-88544216D01*
X160948856Y-88544216D02*
X160927690Y-88520025D01*
D10*
%TO.C,C10*%
X151360000Y-87652164D02*
X151360000Y-87867836D01*
X152080000Y-87652164D02*
X152080000Y-87867836D01*
%TO.C,C1*%
X163937164Y-91060000D02*
X164152836Y-91060000D01*
X163937164Y-91780000D02*
X164152836Y-91780000D01*
%TO.C,C6*%
X153332164Y-86520000D02*
X153547836Y-86520000D01*
X153332164Y-87240000D02*
X153547836Y-87240000D01*
%TO.C,U1*%
X153972500Y-90120000D02*
X154697500Y-90120000D01*
X153972500Y-90845000D02*
X153972500Y-90120000D01*
X153972500Y-93615000D02*
X153972500Y-94040000D01*
X154697500Y-94340000D02*
X154212500Y-94340000D01*
X158192500Y-90120000D02*
X157467500Y-90120000D01*
X158192500Y-90845000D02*
X158192500Y-90120000D01*
X158192500Y-93615000D02*
X158192500Y-94340000D01*
X158192500Y-94340000D02*
X157467500Y-94340000D01*
X153972500Y-94340000D02*
X153642500Y-94580000D01*
X153642500Y-94100000D01*
X153972500Y-94340000D01*
G36*
X153972500Y-94340000D02*
G01*
X153642500Y-94580000D01*
X153642500Y-94100000D01*
X153972500Y-94340000D01*
G37*
%TO.C,C9*%
X152297836Y-88900000D02*
X152082164Y-88900000D01*
X152297836Y-89620000D02*
X152082164Y-89620000D01*
%TO.C,C4*%
X158470000Y-88222164D02*
X158470000Y-88437836D01*
X159190000Y-88222164D02*
X159190000Y-88437836D01*
%TO.C,R2*%
X151460000Y-91586359D02*
X151460000Y-91893641D01*
X152220000Y-91586359D02*
X152220000Y-91893641D01*
%TO.C,C11*%
X153332164Y-85510000D02*
X153547836Y-85510000D01*
X153332164Y-86230000D02*
X153547836Y-86230000D01*
%TO.C,R1*%
X162125000Y-91053641D02*
X162125000Y-90746359D01*
X162885000Y-91053641D02*
X162885000Y-90746359D01*
%TO.C,AE1*%
X154420000Y-82075000D02*
X156420000Y-82075000D01*
X156420000Y-79435000D01*
X159120000Y-79435000D01*
X159120000Y-82075000D01*
X161120000Y-82075000D01*
X161120000Y-79435000D01*
X163820000Y-79435000D01*
X163820000Y-83875000D01*
X163320000Y-83875000D01*
X163320000Y-79935000D01*
X161620000Y-79935000D01*
X161620000Y-82575000D01*
X158620000Y-82575000D01*
X158620000Y-79935000D01*
X156920000Y-79935000D01*
X156920000Y-82575000D01*
X153920000Y-82575000D01*
X153920000Y-79935000D01*
X152220000Y-79935000D01*
X152220000Y-84835000D01*
X151720000Y-84835000D01*
X151720000Y-79935000D01*
X150320000Y-79935000D01*
X150320000Y-84835000D01*
X149420000Y-84835000D01*
X149420000Y-84591785D01*
X149722417Y-84591785D01*
X149732258Y-84639395D01*
X149756326Y-84681797D01*
X149794269Y-84714581D01*
X149802181Y-84718935D01*
X149844844Y-84731043D01*
X149893363Y-84730300D01*
X149938878Y-84717400D01*
X149957489Y-84706787D01*
X149991132Y-84671553D01*
X150011691Y-84626368D01*
X150018222Y-84576842D01*
X150009782Y-84528583D01*
X149992888Y-84496357D01*
X149957628Y-84463687D01*
X149912318Y-84443592D01*
X149862733Y-84437018D01*
X149814647Y-84444908D01*
X149781755Y-84461814D01*
X149746815Y-84498584D01*
X149727153Y-84543378D01*
X149722417Y-84591785D01*
X149420000Y-84591785D01*
X149420000Y-79435000D01*
X154420000Y-79435000D01*
X154420000Y-82075000D01*
G36*
X154420000Y-82075000D02*
G01*
X156420000Y-82075000D01*
X156420000Y-79435000D01*
X159120000Y-79435000D01*
X159120000Y-82075000D01*
X161120000Y-82075000D01*
X161120000Y-79435000D01*
X163820000Y-79435000D01*
X163820000Y-83875000D01*
X163320000Y-83875000D01*
X163320000Y-79935000D01*
X161620000Y-79935000D01*
X161620000Y-82575000D01*
X158620000Y-82575000D01*
X158620000Y-79935000D01*
X156920000Y-79935000D01*
X156920000Y-82575000D01*
X153920000Y-82575000D01*
X153920000Y-79935000D01*
X152220000Y-79935000D01*
X152220000Y-84835000D01*
X151720000Y-84835000D01*
X151720000Y-79935000D01*
X150320000Y-79935000D01*
X150320000Y-84835000D01*
X149420000Y-84835000D01*
X149420000Y-84591785D01*
X149722417Y-84591785D01*
X149732258Y-84639395D01*
X149756326Y-84681797D01*
X149794269Y-84714581D01*
X149802181Y-84718935D01*
X149844844Y-84731043D01*
X149893363Y-84730300D01*
X149938878Y-84717400D01*
X149957489Y-84706787D01*
X149991132Y-84671553D01*
X150011691Y-84626368D01*
X150018222Y-84576842D01*
X150009782Y-84528583D01*
X149992888Y-84496357D01*
X149957628Y-84463687D01*
X149912318Y-84443592D01*
X149862733Y-84437018D01*
X149814647Y-84444908D01*
X149781755Y-84461814D01*
X149746815Y-84498584D01*
X149727153Y-84543378D01*
X149722417Y-84591785D01*
X149420000Y-84591785D01*
X149420000Y-79435000D01*
X154420000Y-79435000D01*
X154420000Y-82075000D01*
G37*
%TO.C,C8*%
X152307836Y-89930000D02*
X152092164Y-89930000D01*
X152307836Y-90650000D02*
X152092164Y-90650000D01*
%TO.C,C2*%
X163927164Y-90030000D02*
X164142836Y-90030000D01*
X163927164Y-90750000D02*
X164142836Y-90750000D01*
%TO.C,J1*%
X150325000Y-96490000D02*
X150325000Y-100090000D01*
X150325000Y-98540000D02*
X150625000Y-98540000D01*
X150325000Y-100090000D02*
X162175000Y-100090000D01*
X150625000Y-96790000D02*
X150625000Y-97790000D01*
X150625000Y-97790000D02*
X150325000Y-97790000D01*
X150625000Y-98540000D02*
X150625000Y-99640000D01*
X150625000Y-99640000D02*
X150925000Y-99640000D01*
X150925000Y-99640000D02*
X150925000Y-100090000D01*
X152125000Y-99640000D02*
X150925000Y-99640000D01*
X152125000Y-99940000D02*
X152125000Y-99640000D01*
X152875000Y-99640000D02*
X152875000Y-99940000D01*
X152875000Y-99940000D02*
X152125000Y-99940000D01*
X159625000Y-99640000D02*
X152875000Y-99640000D01*
X159625000Y-99940000D02*
X159625000Y-99640000D01*
X160375000Y-99640000D02*
X160375000Y-99940000D01*
X160375000Y-99940000D02*
X159625000Y-99940000D01*
X161575000Y-99640000D02*
X160375000Y-99640000D01*
X161575000Y-99640000D02*
X161575000Y-100090000D01*
X161875000Y-96790000D02*
X150625000Y-96790000D01*
X161875000Y-97790000D02*
X161875000Y-96790000D01*
X161875000Y-98540000D02*
X161875000Y-99640000D01*
X161875000Y-99640000D02*
X161575000Y-99640000D01*
X162175000Y-96490000D02*
X150325000Y-96490000D01*
X162175000Y-97790000D02*
X161875000Y-97790000D01*
X162175000Y-98540000D02*
X161875000Y-98540000D01*
X162175000Y-100090000D02*
X162175000Y-96490000D01*
X162485000Y-96180000D02*
X160575000Y-96180000D01*
X162485000Y-98090000D02*
X162485000Y-96180000D01*
%TO.C,C5*%
X153547836Y-87510000D02*
X153332164Y-87510000D01*
X153547836Y-88230000D02*
X153332164Y-88230000D01*
%TO.C,C7*%
X151500000Y-93532164D02*
X151500000Y-93747836D01*
X152220000Y-93532164D02*
X152220000Y-93747836D01*
%TO.C,Y1*%
X159830000Y-90935000D02*
X159830000Y-92285000D01*
X161580000Y-90935000D02*
X161580000Y-92285000D01*
%TO.C,C3*%
X159490000Y-88222164D02*
X159490000Y-88437836D01*
X160210000Y-88222164D02*
X160210000Y-88437836D01*
%TD*%
M02*
